<?xml version="1.0" encoding="UTF-8"?>
<svg id="Layer_2" data-name="Layer 2" xmlns="http://www.w3.org/2000/svg" viewBox="0 0 1099.47 731.05">
  <defs>
    <style>
      .cls-1 {
        fill: #e8e8e8;
      }

      .cls-2 {
        fill: #5f3c11;
      }

      .cls-3 {
        fill: #b4b4b5;
      }
    </style>
  </defs>
  <g id="Layer_1-2" data-name="Layer 1">
    <g id="kaffe">
      <g id="Group_3" data-name="Group 3">
        <path class="cls-1" d="m856.68,258.37c2.94-3.09,6.91-7.64,12.3-14.3,12.38-15.31,22.14-29.26,30.65-42.55l-42.95,56.85Zm237.92-105.9c-3.14-10.49-7.29-18.87-11.59-26.02-2.97-4.94-6.01-9.29-8.85-13.35-3.02-4.32-6.02-8.19-8.99-11.72-1.7-2.02-3.39-3.93-5.08-5.76-.01-.01-.02-.02-.03-.04-5.95-6.45-11.83-11.84-17.67-17.21-7.7-7.07-14.31-12.28-22.34-18.1-.02,0-.02-.02-.02-.02-1.71-1.23-3.49-2.5-5.35-3.81-3.18-2.25-6.62-4.64-10.44-7.31-6.25-4.35-11.19-7.61-15.29-10.12-7.06-4.34-11.61-6.48-15.98-8.23-11.26-4.53-19.57-7.87-29.33-6.11-9.85,1.76-16.66,7.9-29.59,23.04-22.66,26.59-33.85,44.54-33.85,44.54-14.56,23.38-23.23,41.34-34.86,65.62-2.74,5.71-5.18,10.94-7.37,15.75-12.09,26.59-16.35,40.59-19.06,55.36-3.01,16.27-4.43,24.63-.56,34.38,2.73,6.84,7.43,12.06,14.63,16.95,9.03,6.14,21.98,11.78,39.86,19.45,17.03,7.3,36.69,15.57,64.51,19.72,11.72,1.75,28.01,4.05,49.25,1.44,9.66-1.19,21.12-2.6,33.68-7.89,32.8-13.82,49.07-44.04,61.66-67.4,7.21-13.39,13.03-24.42,15.92-40.88,2.94-17.44,1.82-35.33-3.26-52.28Z"/>
      </g>
      <g id="Group_4" data-name="Group 4">
        <path class="cls-1" d="m1092.99,77.69c-1.9-11.33-3.27-20.08-8.27-30.88-3.1-6.99-7.17-13.5-12.09-19.36-2.11-2.5-20.9-24.05-50.5-26.99-5.72-.57-9.92-.93-15.01.95-14.59,5.39-24.23,24.67-19.36,35.54.34.77.74,1.45,1.19,2.06,2.02,2.79,5.13,4.31,9.42,6.79,4.86,2.8,10.08,6.64,17.64,12.65,4.3,3.42,9.36,7.54,15.55,12.59,6.77,5.53,17.28,14.1,28.17,26.85,2.4,2.82,4.82,5.85,7.23,9.09,7.24,9.76,11.67,17.91,16.05,19.47.77.28,1.53.35,2.31.2,4.28-.85,6.28-8.01,7.88-13.71,1.55-5.54,3.22-14.9-.21-35.25Zm-76.93-28.05s-.02-.07-.04-.11c-1.75-7.28-.78-17.99,7.15-21.25,3.24-1.18,6.78-1.32,10.11-.38,1.37.32,2.72.73,4.04,1.22,0,0,.01,0,.02.01.02,0,.03,0,.05.02.14.05.41.15.48.18.26.1.53.21.79.31,1.21.49,2.4,1.06,3.54,1.7,6.12,3.43,10.82,9.26,14.53,15.12,3.98,6.54,6.92,13.65,8.71,21.09,1.44,5.31,2.52,10.71,3.25,16.16.2,1.61.35,3.22.42,4.85.03.71.04,1.42.03,2.13,0,.35-.01.71-.03,1.06-.01.16-.02.32-.03.47-.01.07-.01.15-.01.23.01,0,0,0,0,.04s-.01.08-.01.13c-.07.57-.14,1.14-.26,1.7-.06.31-.13.62-.22.93-.03.1-.13.4-.18.56,0,.01,0,.02-.01.03-.01.02-.01.03-.01.04-.15.32-.31.64-.5.95h0v.02s-.19.26-.26.35c-.07.08-.15.14-.23.21-.14.06-.28.14-.4.22-.03,0-.07.02-.1.04-.13-.02-.25-.01-.38.01-.1-.03-.19-.05-.29-.07-.05,0-.1-.02-.14-.04-.25-.12-.5-.23-.74-.36-.26-.15-.5-.3-.75-.46-.11-.08-.23-.17-.35-.25-.04-.03-.06-.04-.07-.04h-.01s-.02-.02-.03-.03c-3.6-2.76-6.83-6.04-10.15-9.12-6.42-5.95-12.97-11.75-19.69-17.36-3.57-2.98-7.26-5.85-10.7-8.98-2.41-2.03-4.44-4.47-6-7.21-.66-1.31-1.17-2.69-1.52-4.12Z"/>
      </g>
      <path id="Path_7" data-name="Path 7" class="cls-3" d="m848.47,264.88c-4.18,1.92-9.6-.65-11.54-2.12-13.22-10.04,10.56-64.25,25.78-98.44,13.23-29.73,31.06-66.37,62.1-101.69,19.2-21.84,28.66-26.4,33.79-24.05,3.98,1.82,6.68,8.42,5.52,13.44-1.02,4.42-4.83,6.46-8.91,9.79-2.1,1.7-6.97,7.55-16.71,19.23-10.44,12.52-18.34,25.57-30.18,45.13-9.23,15.25-15.35,25.36-22.73,40.43-6.98,14.25-10.97,22.39-15.02,34.65-9.92,30.02-14.88,45.04-15.66,50.37-.51,3.43-1.47,10.99-6.44,13.26Z"/>
      <g id="Group_7" data-name="Group 7">
        <path class="cls-2" d="m964.45,53.76c-2.69,40.96-40.93,107.74-44.39,113.74-6.46,11.15-12.96,22.33-20.43,34.02-8.51,13.29-18.27,27.24-30.65,42.55-5.39,6.66-9.36,11.21-12.3,14.3-4.83,5.09-6.88,6.24-7.87,6.34-.31.03-.52-.04-.67-.12-.19-.1-.36-.26-.49-.46-4.21-6.1,16.6-55.08,26.82-78.26,2.19-4.97,3.89-8.75,4.75-10.68,7.18-15.95,13.1-29.03,20.91-43.39,1.51-2.76,4.46-8.06,8.57-14.95,13.33-22.32,46.47-73.94,54.18-70.15.88.43,1.31,1.52,1.51,2.79v.06c.22,1.42.14,3.06.06,4.21Z"/>
      </g>
    </g>
    <path class="cls-2" d="m899.63,201.52c-8.51,13.29-18.27,27.24-30.65,42.55-5.39,6.66-9.36,11.21-12.3,14.3-1.44.77-2.86,1.59-4.26,2.47-1.62,1.01-3.21,2.11-4.77,3.29-.6.45-1.19.92-1.78,1.41-2.29,1.87-4.5,3.95-6.59,6.27-2.51,2.78-4.59,5.62-6.3,8.5-20.81,34.97,12.05,77.15-13.7,122.5-28.45,50.1-86.45,30.12-129,84-34.66,43.89-13.02,78.48-33,123-56.01,124.82-369.29,171.93-465,51-20.94-26.46-205.76-40.56-191.5-79.5,8.77-23.95,199.03-85.87,391.5-136.5,148.52-39.07,197.19-37.63,227-84,29.12-45.3-.8-72.36,31-120,37.59-56.31,120.99-80.76,187.69-67.19,6.32,1.29,12.5,2.92,18.47,4.9,5.46,1.8,10.76,3.9,15.84,6.29.72.34,1.45.69,2.19,1.06.54.26,1.08.53,1.63.81,7.88,4.01,16.26,9.18,23.53,14.84Z"/>
  </g>
</svg>