<?xml version="1.0" encoding="UTF-8"?>
<svg id="Layer_2" data-name="Layer 2" xmlns="http://www.w3.org/2000/svg" viewBox="0 0 496.31 388.15">
  <defs>
    <style>
      .cls-1 {
        fill: #68410f;
        stroke: #925f36;
      }

      .cls-1, .cls-2, .cls-3, .cls-4 {
        stroke-miterlimit: 10;
      }

      .cls-2 {
        fill: #f4cfa6;
      }

      .cls-2, .cls-4 {
        stroke: #c99d66;
      }

      .cls-3 {
        fill: #b17f49;
        stroke: #b17f49;
      }

      .cls-4 {
        fill: #c99d66;
      }
    </style>
  </defs>
  <g id="Layer_1-2" data-name="Layer 1">
    <g>
      <path class="cls-1" d="m.54,27.4l8.29,273.04,174.54,87.19,312.44-62.17-.26-19.94c0-.19-.17-.33-.36-.29l-311.47,61.1L26.01,290.44,15.17,34.98,340.85,8.64c.07,0,.09-.11.02-.13l-18.21-8L.55,27.41h-.01Z"/>
      <path class="cls-4" d="m26,290.45l332.56-58.93,136.79,73.54c.07.04.05.13-.02.15l-311.61,61.13L25.98,290.61l.02-.15h0Z"/>
      <polygon class="cls-3" points="72.37 296.87 82.14 303.64 110.46 297.5 99.04 290 72.37 296.87"/>
      <polygon class="cls-3" points="104.07 308.98 113.84 315.75 142.16 309.6 130.73 302.1 104.07 308.98"/>
      <polygon class="cls-3" points="132.48 283.11 142.25 289.88 170.56 283.74 159.14 276.24 132.48 283.11"/>
      <polygon class="cls-3" points="181.92 349.04 191.69 355.81 220 349.66 208.58 342.17 181.92 349.04"/>
      <polygon class="cls-3" points="156.22 334.49 165.99 341.26 194.31 335.11 182.88 327.61 156.22 334.49"/>
      <polygon class="cls-3" points="129.25 322.5 139.02 329.27 167.34 323.13 155.91 315.63 129.25 322.5"/>
      <polygon class="cls-3" points="210.87 286.36 220.63 293.13 248.95 286.99 237.53 279.49 210.87 286.36"/>
      <polygon class="cls-3" points="304.33 270.45 314.1 277.22 342.42 271.08 330.99 263.58 304.33 270.45"/>
      <polygon class="cls-3" points="224.74 341.1 234.51 347.87 262.83 341.72 251.4 334.22 224.74 341.1"/>
      <polygon class="cls-3" points="200.89 324.1 210.66 330.87 238.98 324.73 227.55 317.23 200.89 324.1"/>
      <polygon class="cls-3" points="177.45 311.34 187.22 318.11 215.54 311.96 204.11 304.47 177.45 311.34"/>
      <polygon class="cls-3" points="154.84 296.64 164.6 303.42 192.92 297.27 181.5 289.77 154.84 296.64"/>
      <polygon class="cls-3" points="283.78 258.96 293.54 265.74 321.86 259.59 310.44 252.09 283.78 258.96"/>
      <polygon class="cls-3" points="276.97 292.98 286.74 299.75 315.06 293.6 303.63 286.1 276.97 292.98"/>
      <polygon class="cls-3" points="257.89 279.43 267.66 286.2 295.98 280.06 284.56 272.56 257.89 279.43"/>
      <polygon class="cls-3" points="238.81 265.76 248.58 272.53 276.9 266.39 265.48 258.89 238.81 265.76"/>
      <polygon class="cls-3" points="231.55 299.9 241.32 306.67 269.64 300.53 258.21 293.03 231.55 299.9"/>
      <polygon class="cls-3" points="350.33 299.57 360.1 306.34 388.42 300.2 377 292.7 350.33 299.57"/>
      <polygon class="cls-3" points="325.41 283.99 335.17 290.76 363.49 284.62 352.07 277.12 325.41 283.99"/>
      <polygon class="cls-3" points="191.79 274.61 201.56 281.38 229.88 275.24 218.45 267.74 191.79 274.61"/>
      <polygon class="cls-3" points="419.35 302.71 429.12 309.48 457.44 303.34 446.02 295.84 419.35 302.71"/>
      <polygon class="cls-3" points="393.91 287.65 403.68 294.42 432 288.28 420.58 280.78 393.91 287.65"/>
      <polygon class="cls-3" points="369.31 274.12 379.07 280.89 407.39 274.75 395.97 267.25 369.31 274.12"/>
      <polygon class="cls-3" points="348.43 261.48 358.2 268.25 386.52 262.11 375.09 254.61 348.43 261.48"/>
      <polygon class="cls-3" points="328.13 247.94 337.9 254.71 366.21 248.56 354.79 241.07 328.13 247.94"/>
      <polygon class="cls-3" points="373.46 313.1 383.23 319.88 411.55 313.73 400.12 306.23 373.46 313.1"/>
      <polygon class="cls-3" points="250.64 317.93 279.11 336.08 363.59 319.93 332.87 302.95 250.64 317.93"/>
      <polygon class="cls-2" points="28.18 46.03 327.5 22.7 344.28 222.4 37.46 276.57 28.18 46.03"/>
      <path class="cls-4" d="m358.53,231.24l-17.37-221.96c-.02-.26-.34-.37-.52-.19l-13.04,13.51c-.06.06-.09.15-.08.24l16.74,199.29c.01.16-.09.3-.25.32l-306.44,54.1c-.07.01-.13.05-.18.11l-10.39,12.57c-.34.41.02,1.03.55.94l330.74-58.61c.15-.03.26-.17.25-.32h-.01Z"/>
      <path class="cls-4" d="m15.37,34.96L340.52,8.66c.21-.02.32.23.18.38l-13.13,13.6s-.09.06-.14.07L28.4,46.01c-.12,0-.21.11-.21.23l9.27,230.25c0,.06-.02.11-.05.15l-11.03,13.36c-.13.16-.39.07-.4-.13L15.17,35.2c0-.12.09-.22.21-.23h0Z"/>
    </g>
  </g>
</svg>