<?xml version="1.0" encoding="UTF-8"?>
<svg id="Layer_2" data-name="Layer 2" xmlns="http://www.w3.org/2000/svg" viewBox="0 0 1810.94 2031.37">
  <defs>
    <style>
      .cls-1 {
        stroke-width: .15px;
      }

      .cls-1, .cls-2, .cls-3, .cls-4, .cls-5, .cls-6, .cls-7, .cls-8, .cls-9, .cls-10, .cls-11, .cls-12, .cls-13, .cls-14, .cls-15, .cls-16, .cls-17, .cls-18, .cls-19, .cls-20, .cls-21, .cls-22, .cls-23, .cls-24, .cls-25, .cls-26, .cls-27, .cls-28, .cls-29, .cls-30, .cls-31, .cls-32, .cls-33, .cls-34, .cls-35, .cls-36, .cls-37, .cls-38, .cls-39, .cls-40 {
        stroke-miterlimit: 10;
      }

      .cls-1, .cls-3, .cls-5, .cls-7, .cls-10, .cls-11, .cls-12, .cls-17, .cls-21, .cls-22, .cls-23, .cls-25, .cls-26, .cls-27, .cls-34, .cls-35, .cls-36 {
        stroke: #1d1d1b;
      }

      .cls-1, .cls-3, .cls-5, .cls-7, .cls-10, .cls-11, .cls-12, .cls-17, .cls-21, .cls-22, .cls-23, .cls-25, .cls-26, .cls-27, .cls-34, .cls-35, .cls-36, .cls-41 {
        fill: #1d1d1b;
      }

      .cls-2, .cls-4, .cls-8, .cls-13, .cls-14, .cls-16, .cls-28, .cls-29, .cls-30, .cls-31, .cls-37, .cls-38, .cls-39 {
        stroke: #b17f49;
      }

      .cls-2, .cls-4, .cls-8, .cls-13, .cls-14, .cls-16, .cls-28, .cls-29, .cls-30, .cls-37, .cls-38, .cls-39 {
        fill: #b17f49;
      }

      .cls-2, .cls-9, .cls-31 {
        stroke-width: 2px;
      }

      .cls-3 {
        stroke-width: .07px;
      }

      .cls-42 {
        fill: #fff;
      }

      .cls-4 {
        stroke-width: .09px;
      }

      .cls-5 {
        stroke-width: .32px;
      }

      .cls-6 {
        stroke: #f5cfa6;
        stroke-width: 4px;
      }

      .cls-6, .cls-24, .cls-31, .cls-43, .cls-33 {
        fill: none;
      }

      .cls-44 {
        fill: #e4be9c;
      }

      .cls-7 {
        stroke-width: .23px;
      }

      .cls-8 {
        stroke-width: .1px;
      }

      .cls-9 {
        fill: #f3c393;
        stroke: #f3c492;
      }

      .cls-10 {
        stroke-width: .28px;
      }

      .cls-11 {
        stroke-width: .29px;
      }

      .cls-12 {
        stroke-width: .14px;
      }

      .cls-13 {
        stroke-width: .09px;
      }

      .cls-14 {
        stroke-width: .1px;
      }

      .cls-15 {
        fill: #68410f;
        stroke: #925f36;
      }

      .cls-16 {
        stroke-width: .1px;
      }

      .cls-45 {
        fill: #f2c9a0;
      }

      .cls-17 {
        stroke-width: .13px;
      }

      .cls-18 {
        stroke-width: .73px;
      }

      .cls-18, .cls-19 {
        fill: #d69047;
      }

      .cls-18, .cls-19, .cls-24 {
        stroke: #d69048;
      }

      .cls-19 {
        stroke-width: .75px;
      }

      .cls-20, .cls-32 {
        stroke: #c99d66;
      }

      .cls-20, .cls-40 {
        fill: #f4cfa6;
      }

      .cls-21 {
        stroke-width: .08px;
      }

      .cls-22 {
        stroke-width: .25px;
      }

      .cls-23 {
        stroke-width: .11px;
      }

      .cls-46 {
        fill: #8d683c;
      }

      .cls-25 {
        stroke-width: .1px;
      }

      .cls-26 {
        stroke-width: .1px;
      }

      .cls-27 {
        stroke-width: .25px;
      }

      .cls-47 {
        fill: #84623e;
      }

      .cls-28 {
        stroke-width: .1px;
      }

      .cls-29 {
        stroke-width: .1px;
      }

      .cls-32 {
        fill: #c99d66;
      }

      .cls-48 {
        fill: #e8e8e8;
      }

      .cls-49 {
        fill: #8e683c;
      }

      .cls-33 {
        stroke: #fff;
        stroke-width: 1.68px;
      }

      .cls-50 {
        fill: #5f3c11;
      }

      .cls-34 {
        stroke-width: .11px;
      }

      .cls-35 {
        stroke-width: .1px;
      }

      .cls-51 {
        fill: #f5cfa6;
      }

      .cls-36 {
        stroke-width: .28px;
      }

      .cls-52 {
        fill: #ec6f79;
      }

      .cls-53 {
        fill: #674219;
      }

      .cls-54 {
        fill: #d69048;
      }

      .cls-37 {
        stroke-width: .09px;
      }

      .cls-38 {
        stroke-width: .09px;
      }

      .cls-55 {
        fill: #f2dabf;
      }

      .cls-39 {
        stroke-width: .1px;
      }

      .cls-40 {
        stroke: #f4cfa6;
      }

      .cls-56 {
        fill: #b4b4b5;
      }
    </style>
  </defs>
  <g id="Layer_1-2" data-name="Layer 1">
    <g id="sweater">
      <g>
        <path class="cls-28" d="m481.15,725.61c2.57,4.11,1.09,9.53-3.6,12.31s-10.3,1.54-12.87-2.57-1.12-9.54,3.57-12.32c4.68-2.78,10.33-1.53,12.9,2.58Z"/>
        <polygon class="cls-28" points="490.69 740.33 474.04 749.98 464.69 735.35 481.49 725.37 490.69 740.33"/>
        <ellipse class="cls-16" cx="486.04" cy="732.88" rx="10.11" ry="8.77" transform="translate(-277.6 296.75) rotate(-26.72)"/>
        <polygon class="cls-16" points="473.99 750.24 464.69 735.35 481.15 725.61 490.45 740.5 473.99 750.24"/>
      </g>
      <path class="cls-40" d="m410.35,349.71s-63.82-5.55-112.37,29.13c-43.17,30.84-113.77,97.87-128.89,112.35-1.92,1.84-3.7,3.81-5.34,5.9l-112.72,143.95s-16.65,9.72-19.42,37.46l-2.77,27.74-24.97,20.81s8.32,15.26,23.58,27.75l15.26,12.49,26.36-23.58s40.23,8.32,73.53-13.87c33.3-22.2,122.1-111.2,122.1-111.2l-49.96,148.66s-9.71,6.94-1.39,36.07c8.32,29.13,5.55,22.2,5.55,22.2l-11.79,27.75s142.2,69.37,194.92,80.47c52.72,11.1,81.85,6.94,81.85,6.94l12.49-30.52s9.71,1.39,24.97-19.42c15.26-20.81,37.46-97.11,37.46-97.11l19.42-88.79s27.75,158.16,45.78,194.23c18.04,36.07,44.39,42.38,44.39,42.38v32.53l61.04-8.32-12.49-31.91s24.97-15.26,34.68-59.66c7.84-35.85,3.02-105.19.87-130.54-.52-6.17-1.62-12.25-3.3-18.21l-45.73-162.46c-3.01-10.71-7.74-20.84-14.01-30.03-12.04-17.65-32.87-48.26-46.05-68.02-19.42-29.13-69.37-65.2-69.37-65.2l-41.25,22.8c-11.4,4.14-23.81,4.59-35.49,1.29l-53.03-17.43c-11.63-3.29-20.77-12.3-24.21-23.88l-9.73-32.73Z"/>
      <path class="cls-46" d="m0,727.07l27.15-22.14,43.75,39.85-28.66,25.09s-19.47-15.02-24.56-20.38-17.68-22.42-17.68-22.42Z"/>
      <polygon class="cls-46" points="666.47 942.01 666.47 975.25 732.32 966.75 718.86 934.14 666.47 942.01"/>
      <path class="cls-46" d="m216.68,825.17l-11.92,28.25s152.31,69.31,174.67,75.61c22.36,6.3,56.76,12.05,56.76,12.05l48.33,1.31,12.62-31.07-280.47-86.15Z"/>
      <path class="cls-46" d="m410.81,347.52h-25.73l13.35,51.42c3.38,11.51,17.12,18.87,28.01,22.74l69.38,24.38c7.69,2.73,21.11,3.25,28.8.53l68.76-35.13-19.79-14.71-48.87,24.52c-8.53,3.51-17.99,3.64-26.61.37l-57.35-21.75c-8.77-3.33-15.66-10.57-18.8-19.76l-11.14-32.62Z"/>
      <line class="cls-36" x1="30.74" y1="718.21" x2="14.02" y2="732.11"/>
      <line class="cls-36" x1="52.61" y1="740.45" x2="35.89" y2="754.35"/>
      <line class="cls-36" x1="44.25" y1="733.49" x2="27.54" y2="747.4"/>
      <line class="cls-36" x1="37.76" y1="726.54" x2="21.04" y2="740.45"/>
      <line class="cls-36" x1="60.97" y1="746.43" x2="44.25" y2="760.34"/>
      <line class="cls-7" x1="231.94" y1="837.95" x2="223.58" y2="855.9"/>
      <line class="cls-5" x1="321.19" y1="866.05" x2="310.56" y2="893.79"/>
      <line class="cls-27" x1="304.48" y1="862.6" x2="296.12" y2="884.82"/>
      <line class="cls-10" x1="287.9" y1="855.9" x2="278.25" y2="879.19"/>
      <line class="cls-7" x1="272.31" y1="855.9" x2="263.96" y2="873.84"/>
      <line class="cls-7" x1="258.48" y1="849.52" x2="250.12" y2="867.47"/>
      <line class="cls-7" x1="243.15" y1="843.3" x2="234.8" y2="861.25"/>
      <line class="cls-5" x1="403.73" y1="897.36" x2="393.1" y2="925.11"/>
      <line class="cls-5" x1="386.3" y1="890.54" x2="375.67" y2="918.28"/>
      <line class="cls-5" x1="372.15" y1="884.82" x2="361.51" y2="912.56"/>
      <line class="cls-5" x1="355.06" y1="879.92" x2="344.42" y2="907.66"/>
      <line class="cls-5" x1="337.5" y1="872.94" x2="326.86" y2="900.68"/>
      <line class="cls-5" x1="460.16" y1="907.66" x2="449.52" y2="935.41"/>
      <line class="cls-5" x1="442.13" y1="904.41" x2="431.5" y2="932.15"/>
      <line class="cls-5" x1="422.53" y1="902.4" x2="411.89" y2="930.14"/>
      <line class="cls-11" x1="477.62" y1="914.07" x2="468.07" y2="938.98"/>
      <line class="cls-1" x1="679.92" y1="946.6" x2="682.4" y2="971.44"/>
      <line class="cls-1" x1="715.38" y1="941.01" x2="717.86" y2="965.84"/>
      <line class="cls-1" x1="704.48" y1="942.72" x2="706.96" y2="967.56"/>
      <line class="cls-1" x1="693.25" y1="945.15" x2="695.72" y2="969.98"/>
      <line class="cls-22" x1="394.52" y1="357.09" x2="408.41" y2="357.09"/>
      <line class="cls-22" x1="401.47" y1="384.87" x2="415.36" y2="384.87"/>
      <line class="cls-22" x1="398.41" y1="375.08" x2="412.31" y2="375.08"/>
      <line class="cls-22" x1="396.73" y1="365.3" x2="410.62" y2="365.3"/>
      <line class="cls-34" x1="412.19" y1="411.08" x2="429.23" y2="401.59"/>
      <line class="cls-17" x1="403.9" y1="397.86" x2="420.71" y2="394.25"/>
      <line class="cls-23" x1="457.73" y1="431.3" x2="464.86" y2="414.96"/>
      <line class="cls-21" x1="442.79" y1="425.09" x2="450.52" y2="409.44"/>
      <line class="cls-12" x1="425.33" y1="418.57" x2="438.37" y2="404.37"/>
      <line class="cls-23" x1="468.86" y1="435.43" x2="475.99" y2="419.09"/>
      <line class="cls-23" x1="480" y1="438.71" x2="487.12" y2="422.37"/>
      <line class="cls-23" x1="497.15" y1="443.03" x2="500.96" y2="425.62"/>
      <line class="cls-23" x1="533.45" y1="438.68" x2="526.21" y2="422.39"/>
      <line class="cls-23" x1="515.63" y1="446.13" x2="514.66" y2="428.33"/>
      <line class="cls-26" x1="568.19" y1="421.33" x2="558.99" y2="408.6"/>
      <line class="cls-25" x1="554.18" y1="430.28" x2="545.99" y2="417.61"/>
      <line class="cls-3" x1="543.5" y1="435.45" x2="534.26" y2="421.63"/>
      <line class="cls-35" x1="579.55" y1="415.94" x2="570.16" y2="402.94"/>
      <g>
        <path class="cls-29" d="m384.63,737.27c2.52,4.05,1.07,9.39-3.54,12.13-4.6,2.74-10.12,1.52-12.65-2.53s-1.1-9.4,3.51-12.14c4.6-2.74,10.15-1.51,12.68,2.55Z"/>
        <polygon class="cls-29" points="394 751.77 377.63 761.28 368.44 746.87 384.96 737.04 394 751.77"/>
        <ellipse class="cls-39" cx="389.42" cy="744.44" rx="9.94" ry="8.64" transform="translate(-296.58 259.43) rotate(-27.12)"/>
        <polygon class="cls-39" points="377.58 761.54 368.44 746.87 384.63 737.27 393.77 751.94 377.58 761.54"/>
      </g>
      <g>
        <path class="cls-14" d="m269.89,779.63c1.89,4.59-.21,9.98-5,12.22-4.79,2.24-9.94.21-11.83-4.39s.18-10,4.97-12.24,9.96-.19,11.86,4.41Z"/>
        <polygon class="cls-14" points="276.99 796.11 260 803.83 253.06 787.46 270.24 779.43 276.99 796.11"/>
        <ellipse class="cls-8" cx="273.56" cy="787.8" rx="9.85" ry="8.94" transform="translate(-426.69 334.91) rotate(-37.96)"/>
        <polygon class="cls-8" points="259.92 804.09 253.06 787.46 269.89 779.63 276.75 796.26 259.92 804.09"/>
      </g>
      <g>
        <path class="cls-4" d="m361.44,501.59c1.95,3.84.1,8.35-4.4,10.22s-9.48.17-11.43-3.68c-1.95-3.84-.13-8.37,4.38-10.24,4.51-1.87,9.51-.15,11.46,3.69Z"/>
        <polygon class="cls-4" points="368.72 515.39 352.72 521.83 345.6 508.14 361.77 501.43 368.72 515.39"/>
        <ellipse class="cls-37" cx="365.19" cy="508.43" rx="9.11" ry="7.72" transform="translate(-90.73 79.48) rotate(-11.06)"/>
        <polygon class="cls-37" points="352.65 522.05 345.6 508.14 361.44 501.59 368.49 515.51 352.65 522.05"/>
      </g>
      <g>
        <path class="cls-28" d="m444.28,480.05c2.57,4.11,1.09,9.53-3.6,12.31-4.68,2.78-10.3,1.54-12.87-2.57-2.57-4.11-1.12-9.54,3.57-12.32s10.33-1.53,12.9,2.58Z"/>
        <polygon class="cls-28" points="453.81 494.77 437.17 504.42 427.81 489.79 444.62 479.82 453.81 494.77"/>
        <ellipse class="cls-16" cx="449.16" cy="487.33" rx="10.11" ry="8.77" transform="translate(-171.14 253.96) rotate(-26.72)"/>
        <polygon class="cls-16" points="437.11 504.68 427.81 489.79 444.28 480.05 453.58 494.94 437.11 504.68"/>
      </g>
      <g>
        <path class="cls-38" d="m302.41,672.22c1.33,4.3-1.31,8.85-6.22,10.29-4.9,1.44-9.68-.96-11.01-5.26-1.33-4.3,1.29-8.87,6.19-10.31,4.9-1.44,9.71.98,11.04,5.28Z"/>
        <polygon class="cls-38" points="307.48 687.69 290.11 692.6 285.18 677.25 302.77 672.08 307.48 687.69"/>
        <ellipse class="cls-13" cx="305.07" cy="679.9" rx="9.48" ry="8.15" transform="translate(-155.28 93.89) rotate(-13.99)"/>
        <polygon class="cls-13" points="290 692.82 285.18 677.25 302.41 672.22 307.23 687.79 290 692.82"/>
      </g>
      <g>
        <path class="cls-28" d="m657.23,773.68c4.14,2.52,5.25,8.02,2.32,12.61s-8.51,6.01-12.65,3.49-5.29-8.02-2.35-12.61c2.93-4.59,8.54-6.01,12.68-3.49Z"/>
        <polygon class="cls-28" points="672.36 782.55 661.83 798.65 646.9 789.79 657.42 773.32 672.36 782.55"/>
        <ellipse class="cls-16" cx="664.86" cy="777.99" rx="10.11" ry="8.77" transform="translate(-356.09 848.47) rotate(-53.43)"/>
        <polygon class="cls-16" points="661.9 798.91 646.9 789.79 657.23 773.68 672.23 782.8 661.9 798.91"/>
      </g>
      <g>
        <path class="cls-28" d="m725,806.49c4.55,1.66,6.72,6.84,4.73,11.92s-7.17,7.55-11.73,5.89c-4.55-1.66-6.75-6.84-4.77-11.91,1.98-5.07,7.21-7.56,11.76-5.9Z"/>
        <polygon class="cls-28" points="741.57 812.23 734.38 830.08 718.01 824.3 725.13 806.1 741.57 812.23"/>
        <ellipse class="cls-16" cx="733.33" cy="809.22" rx="10.11" ry="8.77" transform="translate(-311.81 1125.91) rotate(-64.67)"/>
        <polygon class="cls-16" points="734.5 830.32 718.01 824.3 725 806.49 741.5 812.51 734.5 830.32"/>
      </g>
      <g>
        <path class="cls-28" d="m664.94,881.02c4.35,2.13,5.96,7.51,3.46,12.35-2.5,4.84-7.92,6.76-12.28,4.63s-6-7.51-3.49-12.35,7.96-6.76,12.31-4.63Z"/>
        <polygon class="cls-28" points="680.81 888.47 671.79 905.47 656.11 898 665.1 880.64 680.81 888.47"/>
        <ellipse class="cls-16" cx="672.93" cy="884.61" rx="10.11" ry="8.77" transform="translate(-432.64 999.08) rotate(-58.65)"/>
        <polygon class="cls-16" points="671.88 905.72 656.11 898 664.94 881.02 680.71 888.74 671.88 905.72"/>
      </g>
      <g>
        <path class="cls-28" d="m659,558.47c3.84,2.95,4.35,8.55.94,12.79-3.41,4.24-9.11,5.05-12.95,2.1-3.84-2.95-4.38-8.55-.97-12.79,3.41-4.24,9.14-5.05,12.99-2.09Z"/>
        <polygon class="cls-28" points="673.08 568.93 660.86 583.79 646.98 573.36 659.23 558.13 673.08 568.93"/>
        <ellipse class="cls-16" cx="666.12" cy="563.58" rx="10.11" ry="8.77" transform="translate(-199.99 669.39) rotate(-47.2)"/>
        <polygon class="cls-16" points="660.9 584.06 646.98 573.36 659 558.47 672.92 569.17 660.9 584.06"/>
      </g>
      <g>
        <path class="cls-28" d="m620.06,664.34c2.99,3.82,2.09,9.36-2.27,12.62-4.36,3.26-10.08,2.63-13.07-1.18-2.99-3.82-2.12-9.37,2.24-12.63,4.36-3.26,10.11-2.62,13.1,1.2Z"/>
        <polygon class="cls-28" points="631.11 677.96 615.58 689.33 604.73 675.78 620.38 664.07 631.11 677.96"/>
        <ellipse class="cls-16" cx="625.69" cy="671.05" rx="10.11" ry="8.77" transform="translate(-263.85 446.29) rotate(-32.82)"/>
        <polygon class="cls-16" points="615.56 689.59 604.73 675.78 620.06 664.34 630.89 678.16 615.56 689.59"/>
      </g>
      <g>
        <path class="cls-28" d="m696.34,681.5c4.14,2.52,5.25,8.02,2.32,12.61-2.93,4.59-8.51,6.01-12.65,3.49-4.14-2.52-5.29-8.02-2.35-12.61,2.93-4.59,8.54-6.01,12.68-3.49Z"/>
        <polygon class="cls-28" points="711.47 690.36 700.94 706.47 686.01 697.6 696.54 681.14 711.47 690.36"/>
        <ellipse class="cls-16" cx="703.97" cy="685.8" rx="10.11" ry="8.77" transform="translate(-266.24 842.62) rotate(-53.43)"/>
        <polygon class="cls-16" points="701.01 706.72 686.01 697.6 696.34 681.5 711.34 690.62 701.01 706.72"/>
      </g>
      <g>
        <path class="cls-28" d="m535.34,572.54c3.49,3.37,3.36,8.98-.52,12.81s-9.62,3.99-13.11.62c-3.49-3.37-3.39-8.99.48-12.82,3.87-3.83,9.66-3.98,13.14-.61Z"/>
        <polygon class="cls-28" points="548.14 584.52 534.32 597.91 521.71 585.98 535.61 572.23 548.14 584.52"/>
        <ellipse class="cls-16" cx="541.83" cy="578.42" rx="10.11" ry="8.77" transform="translate(-246.14 493.26) rotate(-40.7)"/>
        <polygon class="cls-16" points="534.33 598.18 521.71 585.98 535.34 572.54 547.96 584.75 534.33 598.18"/>
      </g>
      <g>
        <path class="cls-28" d="m590.4,473.94c3.73,3.09,4.04,8.7.47,12.81-3.57,4.12-9.29,4.71-13.02,1.62-3.73-3.09-4.07-8.7-.5-12.82,3.57-4.12,9.32-4.71,13.06-1.62Z"/>
        <polygon class="cls-28" points="604.09 484.9 591.34 499.31 577.85 488.38 590.65 473.61 604.09 484.9"/>
        <ellipse class="cls-16" cx="597.33" cy="479.3" rx="10.11" ry="8.77" transform="translate(-163.81 564.18) rotate(-45.11)"/>
        <polygon class="cls-16" points="591.37 499.57 577.85 488.38 590.4 473.94 603.93 485.13 591.37 499.57"/>
      </g>
      <g>
        <path class="cls-28" d="m466.35,638.92c2.57,4.11,1.09,9.53-3.6,12.31-4.68,2.78-10.3,1.54-12.87-2.57-2.57-4.11-1.12-9.54,3.57-12.32s10.33-1.53,12.9,2.58Z"/>
        <polygon class="cls-28" points="475.88 653.64 459.24 663.29 449.88 648.66 466.69 638.68 475.88 653.64"/>
        <ellipse class="cls-16" cx="471.23" cy="646.19" rx="10.11" ry="8.77" transform="translate(-240.2 280.84) rotate(-26.72)"/>
        <polygon class="cls-16" points="459.18 663.55 449.88 648.66 466.35 638.92 475.65 653.81 459.18 663.55"/>
      </g>
      <g>
        <path class="cls-28" d="m511.16,713.25c2.57,4.11,1.09,9.53-3.6,12.31-4.68,2.78-10.3,1.54-12.87-2.57-2.57-4.11-1.12-9.54,3.57-12.32s10.33-1.53,12.9,2.58Z"/>
        <polygon class="cls-28" points="520.69 727.97 504.04 737.62 494.69 722.99 511.5 713.02 520.69 727.97"/>
        <ellipse class="cls-16" cx="516.04" cy="720.53" rx="10.11" ry="8.77" transform="translate(-268.84 308.92) rotate(-26.72)"/>
        <polygon class="cls-16" points="503.99 737.89 494.69 722.99 511.16 713.25 520.46 728.15 503.99 737.89"/>
      </g>
      <g>
        <path class="cls-28" d="m343.94,405.91c.92,4.76-2.41,9.28-7.78,10.2-5.37.91-10.17-2.26-11.09-7.02s2.38-9.31,7.75-10.22,10.19,2.28,11.11,7.04Z"/>
        <polygon class="cls-28" points="347.55 423.07 328.55 426.1 325.07 409.09 344.34 405.81 347.55 423.07"/>
        <ellipse class="cls-16" cx="345.88" cy="414.45" rx="10.11" ry="8.77" transform="translate(-39.35 36.3) rotate(-5.68)"/>
        <polygon class="cls-16" points="328.41 426.32 325.07 409.09 343.94 405.91 347.27 423.14 328.41 426.32"/>
      </g>
      <g>
        <path class="cls-28" d="m508.41,807.81c2.57,4.11,1.09,9.53-3.6,12.31s-10.3,1.54-12.87-2.57c-2.57-4.11-1.12-9.54,3.57-12.32,4.68-2.78,10.33-1.53,12.9,2.58Z"/>
        <polygon class="cls-28" points="517.94 822.53 501.3 832.18 491.94 817.55 508.75 807.57 517.94 822.53"/>
        <ellipse class="cls-16" cx="513.29" cy="815.08" rx="10.11" ry="8.77" transform="translate(-311.64 317.78) rotate(-26.72)"/>
        <polygon class="cls-16" points="501.24 832.44 491.94 817.55 508.41 807.81 517.71 822.7 501.24 832.44"/>
      </g>
      <g>
        <path class="cls-28" d="m406.85,827.67c2.57,4.11,1.09,9.53-3.6,12.31s-10.3,1.54-12.87-2.57-1.12-9.54,3.57-12.32c4.68-2.78,10.33-1.53,12.9,2.58Z"/>
        <polygon class="cls-28" points="416.39 842.39 399.74 852.04 390.39 837.41 407.19 827.44 416.39 842.39"/>
        <ellipse class="cls-16" cx="411.74" cy="834.95" rx="10.11" ry="8.77" transform="translate(-331.41 274.24) rotate(-26.72)"/>
        <polygon class="cls-16" points="399.69 852.31 390.39 837.41 406.85 827.67 416.15 842.57 399.69 852.31"/>
      </g>
      <g>
        <path class="cls-28" d="m258.63,465.66c.27,4.84-3.65,8.87-9.09,9.05s-9.77-3.62-10.03-8.46c-.27-4.84,3.63-8.9,9.07-9.07s9.79,3.64,10.05,8.49Z"/>
        <polygon class="cls-28" points="259.88 483.15 240.65 483.57 239.51 466.24 259.04 465.61 259.88 483.15"/>
        <ellipse class="cls-16" cx="259.4" cy="474.38" rx="8.77" ry="10.11" transform="translate(-224.26 716.04) rotate(-87.88)"/>
        <polygon class="cls-16" points="240.47 483.78 239.51 466.24 258.63 465.66 259.6 483.19 240.47 483.78"/>
      </g>
      <g>
        <path class="cls-28" d="m258.13,566.06c.93,4.76-2.4,9.29-7.76,10.21-5.37.92-10.17-2.24-11.1-7-.93-4.76,2.37-9.31,7.74-10.23s10.19,2.27,11.12,7.03Z"/>
        <polygon class="cls-28" points="261.77 583.21 242.77 586.27 239.27 569.26 258.53 565.96 261.77 583.21"/>
        <ellipse class="cls-16" cx="260.09" cy="574.6" rx="10.11" ry="8.77" transform="translate(-56.28 28.96) rotate(-5.75)"/>
        <polygon class="cls-16" points="242.63 586.49 239.27 569.26 258.13 566.06 261.49 583.29 242.63 586.49"/>
      </g>
      <g>
        <path class="cls-28" d="m173.29,552.31c.92,4.76-2.4,9.28-7.77,10.2-5.37.92-10.17-2.25-11.09-7.01-.92-4.76,2.38-9.31,7.75-10.23,5.37-.92,10.19,2.28,11.12,7.03Z"/>
        <polygon class="cls-28" points="176.91 569.46 157.92 572.51 154.43 555.5 173.69 552.21 176.91 569.46"/>
        <ellipse class="cls-16" cx="175.24" cy="560.85" rx="10.11" ry="8.77" transform="translate(-55 20.25) rotate(-5.72)"/>
        <polygon class="cls-16" points="157.77 572.73 154.43 555.5 173.29 552.31 176.64 569.54 157.77 572.73"/>
      </g>
      <g>
        <path class="cls-28" d="m192.57,638.04c.56,4.82-3.09,9.08-8.52,9.59-5.42.51-9.97-3.01-10.53-7.83s3.07-9.1,8.5-9.61c5.42-.51,9.99,3.04,10.55,7.85Z"/>
        <polygon class="cls-28" points="194.89 655.42 175.72 657.02 173.52 639.8 192.98 637.97 194.89 655.42"/>
        <ellipse class="cls-16" cx="193.87" cy="646.7" rx="10.11" ry="8.77" transform="translate(-15.63 4.89) rotate(-1.39)"/>
        <polygon class="cls-16" points="175.56 657.24 173.52 639.8 192.57 638.04 194.61 655.48 175.56 657.24"/>
      </g>
      <g>
        <path class="cls-28" d="m96.24,659.57c-.65,4.8-5.26,8.02-10.64,7.16-5.38-.86-8.91-5.4-8.25-10.2.65-4.8,5.24-8.05,10.62-7.2,5.38.86,8.92,5.43,8.27,10.23Z"/>
        <polygon class="cls-28" points="94.16 676.98 75.19 673.76 77.35 656.53 96.65 659.6 94.16 676.98"/>
        <ellipse class="cls-16" cx="95.34" cy="668.28" rx="8.77" ry="10.11" transform="translate(-577.23 610.57) rotate(-76.98)"/>
        <polygon class="cls-16" points="74.98 673.93 77.35 656.53 96.24 659.57 93.87 676.96 74.98 673.93"/>
      </g>
      <g>
        <path class="cls-28" d="m378.03,599.92c2.57,4.11,1.09,9.53-3.6,12.31s-10.3,1.54-12.87-2.57-1.12-9.54,3.57-12.32,10.33-1.53,12.9,2.58Z"/>
        <polygon class="cls-28" points="387.56 614.64 370.91 624.29 361.56 609.66 378.37 599.69 387.56 614.64"/>
        <ellipse class="cls-16" cx="382.91" cy="607.2" rx="10.11" ry="8.77" transform="translate(-232.1 236.97) rotate(-26.72)"/>
        <polygon class="cls-16" points="370.86 624.55 361.56 609.66 378.03 599.92 387.33 614.81 370.86 624.55"/>
      </g>
    </g>
    <g id="yarn">
      <rect class="cls-43" x="1296.93" y="1797.75" width="256.55" height="180.73" transform="translate(1165.95 -463.26) rotate(30.75)"/>
      <path class="cls-51" d="m1379.31,1890.89c6.42,7.5,13.95,14.04,22.28,19.35,8.93,5.69,18.63,9.37,28.58,12.85,5.36,1.87,10.64,3.88,15.76,6.35s10.23,5.24,15.26,8.01c5.06,2.79,10.08,5.65,15.05,8.6,4.49,2.66,9.12,5.28,12.95,8.88,3.44,3.23,6.28,7.45,6.85,12.23.53,4.4-1.02,8.79-3.65,12.29-5.96,7.93-16.69,9.81-25.88,7.47-4.59-1.17-9.01-3.33-12.1-7.02s-4.55-8.46-4.87-13.12c-.71-10.33,3.7-20.09,8.78-28.81,2.64-4.52,5.42-9.03,8.47-13.29,2.93-4.08,6.5-7.41,10.97-9.73,9.4-4.88,20.37-4.76,30.59-3.21,2.82.43,5.63.96,8.43,1.5,2.2.43,3.14-2.95.93-3.38-11.36-2.21-23.24-4.08-34.58-.79-4.87,1.41-9.47,3.73-13.33,7.02-4.24,3.62-7.23,8.45-10.2,13.1-5.84,9.14-11.68,18.96-13.23,29.88-1.44,10.18,1.16,21.34,10.14,27.33s20.77,6.67,30.03,2.24c8.77-4.2,14.85-14.2,12.58-23.97-2.57-11.01-13.19-16.97-22.17-22.27-10.44-6.16-21.06-12.3-32.1-17.33-10.59-4.82-22.01-7.55-32.44-12.74-9.38-4.67-17.98-10.84-25.39-18.26-1.82-1.82-3.56-3.72-5.24-5.67-1.47-1.71-3.94.77-2.48,2.48h0Z"/>
      <ellipse class="cls-51" cx="1350.01" cy="1807.79" rx="97.31" ry="96.74" transform="translate(-893.88 2043.5) rotate(-59.25)"/>
      <path class="cls-33" d="m1376.67,1710.42c-32.55,21.08-50.71,56.67-46.27,91.31,3.85,30.05,23.37,48.92,30.04,54.83"/>
      <path class="cls-33" d="m1392.94,1711.45c-26.04,20.52-43.26,53.08-44.19,83.69-1.17,38.21,23.61,54.7,26.73,56.68"/>
      <path class="cls-33" d="m1261.04,1850.88c13.69,5.26,52.31,18.03,99.4,5.69,56.84-14.9,86.7-56.06,94.13-66.98"/>
      <path class="cls-33" d="m1400.92,1718.75c-4.5,4.46-37.07,37.79-31.09,83.68,2.71,20.83,12.28,35.91,18.44,43.99"/>
      <path class="cls-33" d="m1414.25,1729.65c-4.39,4.2-25.52,25.28-26.3,58.58-.57,24.37,10.08,41.87,14.4,48.23"/>
      <path class="cls-33" d="m1427.33,1742.38c-3.53,3.18-18.83,17.68-21.14,41.95-2.22,23.27,9,39.76,11.91,43.78"/>
      <path class="cls-33" d="m1441.55,1763.39c-3.19,3.59-7.88,9.84-10.65,18.75-4.82,15.49-.65,28.74,1.07,33.4"/>
      <path class="cls-33" d="m1257.63,1869.92c13.69,5.26,52.31,18.03,99.4,5.69,56.84-14.9,86.7-56.06,94.13-66.98"/>
      <path class="cls-33" d="m1257.7,1888.3c13.69,5.26,52.31,18.03,99.4,5.69,56.84-14.9,86.7-56.06,94.13-66.98"/>
      <path class="cls-33" d="m1335.71,1709.37c.88,2.48,2.56,6.24,5.82,9.95,4.51,5.13,9.65,7.46,12.37,8.47"/>
      <path class="cls-33" d="m1318.63,1710.13c.17,3.88,1.07,9.99,4.98,15.9,6.8,10.27,18.2,13.1,22.38,13.91"/>
      <path class="cls-33" d="m1298.37,1720.78c1.51,4.49,5.03,12.86,12.98,20.43,10.55,10.05,22.49,12.55,27.16,13.28"/>
      <path class="cls-33" d="m1279.57,1738.51c3.49,5.1,10.03,13.24,20.74,19.99,12.45,7.84,24.38,9.91,30.78,10.55"/>
      <path class="cls-33" d="m1267.17,1754.73c6.16,6.7,16.41,16.19,31.38,23.72,11.82,5.95,22.69,8.72,30.67,10.09"/>
      <path class="cls-33" d="m1257.1,1776.27c6.72,7.26,19.02,18.65,37.67,26.67,14.63,6.29,27.84,8.21,36.79,8.78"/>
      <path class="cls-33" d="m1249.03,1794.44c4.89,6.51,12.6,14.96,24.01,22.04,15.24,9.44,29.32,11.63,35.95,12.58,11.68,1.69,21.55,1,28.31.06"/>
      <path class="cls-33" d="m1248.42,1823.97c15.68,11.86,30.42,16.67,39.24,18.8,13.49,3.26,24.77,3.08,31.76,2.91,11.46-.26,21.07-1.88,28.12-3.48"/>
    </g>
    <g id="laptop">
      <path class="cls-15" d="m180.34,1371.45l10.01,329.74,210.78,105.29,377.32-75.08-.31-24.08c0-.23-.21-.39-.43-.35l-376.15,73.79-190.47-91.64-13.09-308.51,393.31-31.81c.09,0,.11-.13.03-.16l-21.99-9.66-389,32.49Z"/>
      <path class="cls-32" d="m211.09,1689.12l401.61-71.17,165.19,88.82c.08.04.06.16-.03.18l-376.31,73.82-190.49-91.46.03-.19Z"/>
      <polygon class="cls-30" points="267.1 1696.88 278.9 1705.06 313.09 1697.64 299.3 1688.58 267.1 1696.88"/>
      <polygon class="cls-30" points="305.38 1711.5 317.18 1719.67 351.38 1712.25 337.58 1703.2 305.38 1711.5"/>
      <polygon class="cls-30" points="339.69 1680.26 351.48 1688.44 385.68 1681.01 371.88 1671.96 339.69 1680.26"/>
      <polygon class="cls-30" points="399.39 1759.88 411.19 1768.06 445.39 1760.64 431.59 1751.58 399.39 1759.88"/>
      <polygon class="cls-30" points="368.36 1742.3 380.16 1750.48 414.36 1743.06 400.56 1734.01 368.36 1742.3"/>
      <polygon class="cls-30" points="335.79 1727.83 347.59 1736.01 381.78 1728.59 367.99 1719.53 335.79 1727.83"/>
      <polygon class="cls-30" points="434.35 1684.19 446.15 1692.36 480.35 1684.94 466.55 1675.89 434.35 1684.19"/>
      <polygon class="cls-30" points="547.23 1664.97 559.02 1673.15 593.22 1665.73 579.42 1656.67 547.23 1664.97"/>
      <polygon class="cls-30" points="451.11 1750.29 462.9 1758.46 497.1 1751.04 483.31 1741.99 451.11 1750.29"/>
      <polygon class="cls-30" points="422.31 1729.76 434.1 1737.94 468.3 1730.52 454.5 1721.46 422.31 1729.76"/>
      <polygon class="cls-30" points="394 1714.35 405.8 1722.53 439.99 1715.11 426.2 1706.05 394 1714.35"/>
      <polygon class="cls-30" points="366.69 1696.6 378.48 1704.78 412.68 1697.36 398.88 1688.31 366.69 1696.6"/>
      <polygon class="cls-30" points="522.4 1651.1 534.2 1659.28 568.4 1651.86 554.6 1642.8 522.4 1651.1"/>
      <polygon class="cls-30" points="514.19 1692.17 525.98 1700.35 560.18 1692.93 546.38 1683.87 514.19 1692.17"/>
      <polygon class="cls-30" points="491.14 1675.82 502.94 1684 537.14 1676.57 523.34 1667.52 491.14 1675.82"/>
      <polygon class="cls-30" points="468.1 1659.31 479.9 1667.48 514.1 1660.06 500.3 1651.01 468.1 1659.31"/>
      <polygon class="cls-30" points="459.33 1700.54 471.13 1708.71 505.33 1701.29 491.53 1692.24 459.33 1700.54"/>
      <polygon class="cls-30" points="602.78 1700.14 614.58 1708.32 648.78 1700.9 634.98 1691.84 602.78 1700.14"/>
      <polygon class="cls-30" points="572.68 1681.32 584.47 1689.5 618.67 1682.08 604.87 1673.02 572.68 1681.32"/>
      <polygon class="cls-30" points="411.32 1670 423.11 1678.17 457.31 1670.75 443.52 1661.7 411.32 1670"/>
      <polygon class="cls-30" points="686.13 1703.93 697.93 1712.11 732.13 1704.69 718.33 1695.63 686.13 1703.93"/>
      <polygon class="cls-30" points="655.41 1685.74 667.21 1693.92 701.41 1686.5 687.61 1677.44 655.41 1685.74"/>
      <polygon class="cls-30" points="625.69 1669.4 637.49 1677.58 671.69 1670.16 657.89 1661.1 625.69 1669.4"/>
      <polygon class="cls-30" points="600.48 1654.14 612.28 1662.31 646.48 1654.89 632.68 1645.84 600.48 1654.14"/>
      <polygon class="cls-30" points="575.96 1637.78 587.76 1645.96 621.96 1638.54 608.16 1629.48 575.96 1637.78"/>
      <polygon class="cls-30" points="630.71 1716.48 642.51 1724.66 676.7 1717.24 662.91 1708.18 630.71 1716.48"/>
      <polygon class="cls-30" points="482.39 1722.32 516.77 1744.23 618.79 1724.73 581.69 1704.22 482.39 1722.32"/>
      <polygon class="cls-20" points="213.73 1393.94 575.21 1365.78 595.47 1606.95 224.93 1672.37 213.73 1393.94"/>
      <path class="cls-32" d="m612.68,1617.62l-20.98-268.05c-.02-.31-.41-.45-.63-.23l-15.75,16.31c-.07.08-.11.18-.1.28l20.21,240.67c.02.19-.11.36-.3.39l-370.07,65.34c-.09.02-.16.06-.22.13l-12.54,15.19c-.41.5.02,1.25.66,1.13l399.42-70.78c.18-.03.31-.2.3-.39Z"/>
      <path class="cls-32" d="m198.26,1380.58l392.67-31.76c.25-.02.39.28.22.46l-15.86,16.42s-.11.08-.17.08l-361.12,28.14c-.14.01-.26.14-.25.28l11.19,278.06c0,.07-.02.13-.06.18l-13.32,16.13c-.16.19-.47.09-.48-.16l-13.05-307.55c0-.15.1-.27.25-.28Z"/>
    </g>
    <g id="paper">
      <rect class="cls-51" x="761.63" y="37.62" width="274.01" height="391.71" rx="2.04" ry="2.04" transform="translate(1816.21 91.72) rotate(156.65)"/>
      <path class="cls-24" d="m1100.36,355.12L948.48,3.24s-.98-2.09-2.7-2.38-2.32-.01-2.32-.01l-244.36,105.43"/>
      <rect class="cls-51" x="736.66" y="99.68" width="274.01" height="391.71" rx="2.04" ry="2.04" transform="translate(1792.92 220.67) rotate(156.65)"/>
      <path class="cls-24" d="m1075.39,417.18l-151.88-351.88s-.98-2.09-2.7-2.38-2.32-.01-2.32-.01l-244.36,105.43"/>
      <path class="cls-54" d="m730,215.81c10.08,4.02,21.02-2.05,27.41-9.77,1.84-2.22,3.61-4.63,6.2-6.03,2.31-1.25,5-1.62,7.58-1.79,2.82-.18,5.64-.15,8.45-.39,3.13-.27,6.25-.75,9.32-1.42,12.36-2.69,23.87-8.27,35.11-13.89,5.78-2.89,11.54-5.82,17.44-8.48s11.94-5.06,18.03-7.28c13.55-4.94,27.39-9.01,41.23-13.06,2.31-.68,1.33-4.3-1-3.62-12.31,3.61-24.64,7.23-36.75,11.47s-23.66,9.16-35.05,14.84-22.37,11.5-34.45,15c-5.82,1.69-11.74,2.71-17.8,2.91-5.49.18-11.36.22-15.91,3.73-2.51,1.94-4.26,4.57-6.37,6.89-1.92,2.12-4.14,3.94-6.61,5.38-4.83,2.82-10.51,4.01-15.83,1.89-.95-.38-2.05.41-2.31,1.31-.3,1.06.37,1.93,1.31,2.31h0Z"/>
      <path class="cls-54" d="m750.47,258.89c5.73-.33,10.26-3.68,14.4-7.37s8.23-7.55,13.55-9.76c11.37-4.73,24.17-3.81,36.04-6.4,22.2-4.86,40.63-19.11,60.47-29.35,10.9-5.62,22.57-10.1,34.94-10.63,2.4-.1,2.42-3.85,0-3.75-22.87.97-42.34,14.18-61.57,25.19-9.61,5.5-19.51,10.71-30.21,13.76-11.71,3.33-24.1,2.7-35.81,5.93-3.19.88-6.33,2.08-9.22,3.72s-5.4,3.74-7.85,5.94c-4.21,3.79-8.73,8.64-14.76,8.99-2.4.14-2.41,3.89,0,3.75h0Z"/>
      <path class="cls-54" d="m774.06,304.52c10.76,1.49,20.29-3.9,29.19-9.24,4.69-2.81,9.38-5.56,14.38-7.78,5.27-2.35,10.73-4.24,16.2-6.07,10.82-3.62,21.52-7.28,31.82-12.25,10.17-4.9,19.94-10.54,29.78-16.05,11.1-6.22,22.33-12.31,34.22-16.91.94-.36,1.6-1.26,1.31-2.31-.25-.9-1.35-1.68-2.31-1.31-20.97,8.11-39.77,20.58-59.73,30.76-5,2.55-10.07,4.97-15.27,7.09s-10.55,3.94-15.89,5.71c-10.7,3.55-21.39,7.12-31.19,12.78-9.45,5.46-19.91,13.56-31.51,11.96-1.01-.14-2,.25-2.31,1.31-.25.87.31,2.17,1.31,2.31h0Z"/>
      <path class="cls-54" d="m795.8,347.88c9.88-.6,18.45-5.65,26.88-10.37,4.2-2.35,8.45-4.68,13.01-6.28,5.45-1.91,11.19-2.73,16.88-3.6,11.43-1.74,22.46-4.76,33.36-8.58,10.65-3.73,21.25-7.73,31.7-12.01,11.39-4.66,22.58-9.97,32.61-17.16.83-.59,1.21-1.63.67-2.57-.47-.82-1.74-1.26-2.57-.67-8.86,6.35-18.63,11.26-28.64,15.51-10.1,4.28-20.43,8.12-30.75,11.85s-21.83,7.43-33.2,9.35c-5.55.94-11.17,1.55-16.64,2.94-4.88,1.23-9.48,3.24-13.92,5.58-9.32,4.91-18.52,11.61-29.39,12.26-2.4.14-2.41,3.9,0,3.75h0Z"/>
      <path class="cls-54" d="m814.13,394.88c10.93,4.15,22.42-1.04,31.7-6.74,4.88-3,9.62-6.25,14.8-8.7s10.79-3.92,16.38-5.12,11.22-2.12,16.79-3.41,10.63-2.97,15.74-5.07c9.9-4.07,19.22-9.32,28.61-14.4,10.54-5.71,21.28-11.21,32.91-14.32,2.33-.62,1.34-4.24-1-3.62-20.62,5.51-38.15,18.19-57.39,26.93-4.77,2.17-9.68,4.07-14.72,5.53-5.47,1.58-11.07,2.6-16.65,3.68s-11.16,2.23-16.53,4.1-10.34,4.59-15.17,7.6c-10.05,6.28-22.11,14.62-34.49,9.93-2.26-.86-3.24,2.77-1,3.62h0Z"/>
      <path class="cls-54" d="m840.94,441.39c4.54-2.34,9.08-4.68,13.62-7.02l7.03-3.62c2.09-1.08,4.17-2.26,6.43-2.95,4.54-1.4,9.57-.98,14.26-1.41s9.66-1.17,14.42-2.17c5.44-1.15,10.78-2.69,16.01-4.58,2.25-.81,1.28-4.44-1-3.62-9.26,3.34-18.92,5.6-28.73,6.55-4.84.47-9.87.18-14.63,1.26s-9.19,3.96-13.49,6.18c-5.27,2.72-10.54,5.44-15.82,8.15-2.15,1.11-.25,4.34,1.89,3.24h0Z"/>
    </g>
    <g id="pencil">
      <rect class="cls-19" x="714.13" y="996.83" width="19.12" height="334.14" transform="translate(2081.39 1351.04) rotate(129.72)"/>
      <polygon class="cls-51" points="601.31 1048.23 576.52 1039.22 574.36 1045.4 588.02 1064.48 601.31 1048.23"/>
      <polygon class="cls-41" points="576.52 1039.22 566.95 1034.17 574.36 1045.4 576.52 1039.22"/>
      <path class="cls-52" d="m884.28,1307.14c-5.19-.07-15.19-7.96-12.63-13.14,2.41-4.87,4.01-8.14,9.53-9.72,4.99-1.42,12.75,6.06,12.68,11.5-.07,5.44-4.39,11.43-9.58,11.36Z"/>
      <polygon class="cls-55" points="859.36 1263.16 846.08 1279.35 872.91 1300.29 883.02 1284.24 859.36 1263.16"/>
    </g>
    <g id="knitting">
      <rect class="cls-19" x="1403.04" y="1011.49" width="393.77" height="18.83" rx="3.66" ry="3.66" transform="translate(3207.44 2029.82) rotate(179.57)"/>
      <rect class="cls-19" x="997.62" y="1119.67" width="393.77" height="18.83" rx="3.66" ry="3.66" transform="translate(2790.17 1523.46) rotate(150.5)"/>
      <path class="cls-18" d="m1409.41,1015.65l-.1,13.44c0,1.01-1.06,1.66-1.97,1.22l-14.86-7.19c-1.06-.51-1.02-2.04.07-2.5l14.95-6.25c.91-.38,1.9.29,1.9,1.27Z"/>
      <path class="cls-18" d="m1363.46,1040.78l-7.54-10.97c-.56-.82-.13-1.95.84-2.18l15.55-3.61c1.19-.28,2.15.99,1.56,2.06l-8.01,14.58c-.51.92-1.81.99-2.4.12Z"/>
      <rect class="cls-51" x="1427.91" y="1003.27" width="12.18" height="52.02" transform="translate(3063.25 1708.48) rotate(166.96)"/>
      <rect class="cls-51" x="1336.35" y="1024.47" width="12.18" height="52.02" transform="translate(2887.28 1771) rotate(166.96)"/>
      <rect class="cls-51" x="1599.17" y="1004.06" width="12.18" height="52.02" transform="translate(3401.53 1671.41) rotate(166.96)"/>
      <rect class="cls-51" x="1553.39" y="1000.91" width="12.18" height="52.02" transform="translate(3310.43 1675.51) rotate(166.96)"/>
      <rect class="cls-51" x="1504.18" y="999.36" width="12.18" height="52.02" transform="translate(3212.94 1683.56) rotate(166.96)"/>
      <rect class="cls-51" x="1466.68" y="999.93" width="12.18" height="52.02" transform="translate(3139.04 1693.15) rotate(166.96)"/>
      <rect class="cls-51" x="1225.76" y="1081.94" width="12.18" height="52.02" transform="translate(2681.92 1909.4) rotate(166.96)"/>
      <rect class="cls-51" x="1259.63" y="1059.88" width="12.18" height="52.02" transform="translate(2743.8 1858.22) rotate(166.96)"/>
      <rect class="cls-51" x="1296.3" y="1042.02" width="12.18" height="52.02" transform="translate(2812.17 1814.68) rotate(166.96)"/>
      <rect class="cls-51" x="1193.2" y="1103.97" width="12.18" height="52.02" transform="translate(2622.61 1960.24) rotate(166.96)"/>
      <path class="cls-51" d="m1617.06,1054.04l96.77,351.66s-113.29,47.22-165.63,56.82c-52.34,9.6-83.5,16.4-125.82,29.35-42.33,12.95-105.23,27.52-127.03,25.85-21.81-1.66-24.68,4.04-28.86-6.75-4.18-10.78-57.65-277.91-57.65-277.91l-9.6-76.38s61.26-55.38,113.14-72.55c51.89-17.17,56.48-27.09,86.11-32.88,29.63-5.79,102.29-7.39,102.29-7.39l116.29,10.17Z"/>
      <path class="cls-9" d="m1199.23,1156.7l67.25,354.29s.05,9.05,18.51,6.43c18.45-2.62,19.28.28,19.28.28,0,0,119.73-23.89,138.57-31.84,18.85-7.96,124.15-27.22,124.15-27.22,0,0,89.41-30.12,106.12-36.67,16.71-6.55,40.71-16.26,40.71-16.26,0,0-273.72,63.92-327.63,57.23-53.91-6.7-65.75-9.04-77.81-17.12-12.05-8.08-68.93-133.74-75.89-152.65-6.95-18.91-33.27-136.47-33.27-136.47Z"/>
      <line class="cls-2" x1="1689.78" y1="1408.88" x2="1599.45" y2="1064.01"/>
      <line class="cls-2" x1="1349.63" y1="1499.94" x2="1267.06" y2="1114.29"/>
      <line class="cls-2" x1="1424" y1="1481.52" x2="1330.7" y2="1082.92"/>
      <line class="cls-2" x1="1487.42" y1="1469.23" x2="1395.52" y2="1061.06"/>
      <line class="cls-2" x1="1629.95" y1="1428.84" x2="1531.03" y2="1051.15"/>
      <line class="cls-2" x1="1551.62" y1="1449.97" x2="1460.55" y2="1049.83"/>
      <line class="cls-2" x1="1284.05" y1="1511.54" x2="1211.09" y2="1153.95"/>
      <g>
        <line class="cls-31" x1="1585.06" y1="1061.45" x2="1583.58" y2="1120.7"/>
        <line class="cls-31" x1="1553.6" y1="1059.99" x2="1583.58" y2="1120.7"/>
      </g>
      <g>
        <line class="cls-31" x1="1510.56" y1="1053.62" x2="1509.09" y2="1112.87"/>
        <line class="cls-31" x1="1479.11" y1="1052.16" x2="1509.09" y2="1112.87"/>
      </g>
      <g>
        <line class="cls-31" x1="1657.9" y1="1357.74" x2="1656.42" y2="1416.99"/>
        <line class="cls-31" x1="1626.44" y1="1356.27" x2="1656.42" y2="1416.99"/>
      </g>
      <g>
        <line class="cls-31" x1="1641.27" y1="1285.96" x2="1639.8" y2="1345.21"/>
        <line class="cls-31" x1="1609.82" y1="1284.5" x2="1639.8" y2="1345.21"/>
      </g>
      <g>
        <line class="cls-31" x1="1622.88" y1="1214.59" x2="1621.41" y2="1273.84"/>
        <line class="cls-31" x1="1591.43" y1="1213.13" x2="1621.41" y2="1273.84"/>
      </g>
      <g>
        <line class="cls-31" x1="1606.86" y1="1137.35" x2="1605.38" y2="1196.6"/>
        <line class="cls-31" x1="1575.4" y1="1135.89" x2="1605.38" y2="1196.6"/>
      </g>
      <g>
        <line class="cls-31" x1="1508.31" y1="1338.34" x2="1506.83" y2="1397.59"/>
        <line class="cls-31" x1="1476.85" y1="1336.88" x2="1506.83" y2="1397.59"/>
      </g>
      <g>
        <line class="cls-31" x1="1508.31" y1="1338.34" x2="1506.83" y2="1397.59"/>
        <line class="cls-31" x1="1476.85" y1="1336.88" x2="1506.83" y2="1397.59"/>
      </g>
      <g>
        <line class="cls-31" x1="1508.31" y1="1338.34" x2="1506.83" y2="1397.59"/>
        <line class="cls-31" x1="1476.85" y1="1336.88" x2="1506.83" y2="1397.59"/>
      </g>
      <g>
        <line class="cls-31" x1="1508.31" y1="1338.34" x2="1506.83" y2="1397.59"/>
        <line class="cls-31" x1="1476.85" y1="1336.88" x2="1506.83" y2="1397.59"/>
      </g>
      <g>
        <line class="cls-31" x1="1508.31" y1="1338.34" x2="1506.83" y2="1397.59"/>
        <line class="cls-31" x1="1476.85" y1="1336.88" x2="1506.83" y2="1397.59"/>
      </g>
      <g>
        <line class="cls-31" x1="1508.31" y1="1338.34" x2="1506.83" y2="1397.59"/>
        <line class="cls-31" x1="1476.85" y1="1336.88" x2="1506.83" y2="1397.59"/>
      </g>
      <g>
        <line class="cls-31" x1="1508.31" y1="1338.34" x2="1506.83" y2="1397.59"/>
        <line class="cls-31" x1="1476.85" y1="1336.88" x2="1506.83" y2="1397.59"/>
      </g>
      <g>
        <line class="cls-31" x1="1492.27" y1="1269.11" x2="1490.8" y2="1328.36"/>
        <line class="cls-31" x1="1460.82" y1="1267.64" x2="1490.8" y2="1328.36"/>
      </g>
      <g>
        <line class="cls-31" x1="1460.21" y1="1130.65" x2="1458.73" y2="1189.9"/>
        <line class="cls-31" x1="1428.76" y1="1129.18" x2="1458.73" y2="1189.9"/>
      </g>
      <g>
        <line class="cls-31" x1="1441.36" y1="1061.05" x2="1439.88" y2="1120.3"/>
        <line class="cls-31" x1="1409.9" y1="1059.59" x2="1439.88" y2="1120.3"/>
      </g>
      <g>
        <line class="cls-31" x1="1584.37" y1="1365.83" x2="1582.9" y2="1425.08"/>
        <line class="cls-31" x1="1552.92" y1="1364.37" x2="1582.9" y2="1425.08"/>
      </g>
      <g>
        <line class="cls-31" x1="1565.45" y1="1284.09" x2="1563.97" y2="1343.34"/>
        <line class="cls-31" x1="1533.99" y1="1282.63" x2="1563.97" y2="1343.34"/>
      </g>
      <g>
        <line class="cls-31" x1="1548.54" y1="1211.09" x2="1547.07" y2="1270.34"/>
        <line class="cls-31" x1="1517.09" y1="1209.63" x2="1547.07" y2="1270.34"/>
      </g>
      <g>
        <line class="cls-31" x1="1528.5" y1="1131.07" x2="1527.02" y2="1190.32"/>
        <line class="cls-31" x1="1497.04" y1="1129.61" x2="1527.02" y2="1190.32"/>
      </g>
      <g>
        <line class="cls-31" x1="1409.44" y1="1354.05" x2="1436.81" y2="1406.62"/>
        <line class="cls-31" x1="1437.04" y1="1338.91" x2="1436.81" y2="1406.62"/>
      </g>
      <g>
        <line class="cls-31" x1="1393.49" y1="1285.2" x2="1420.86" y2="1337.77"/>
        <line class="cls-31" x1="1421.1" y1="1270.06" x2="1420.86" y2="1337.77"/>
      </g>
      <g>
        <line class="cls-31" x1="1380.62" y1="1218.33" x2="1407.99" y2="1270.9"/>
        <line class="cls-31" x1="1408.23" y1="1203.19" x2="1407.99" y2="1270.9"/>
      </g>
      <g>
        <line class="cls-31" x1="1366.36" y1="1156.75" x2="1393.73" y2="1209.32"/>
        <line class="cls-31" x1="1393.97" y1="1141.61" x2="1393.73" y2="1209.32"/>
      </g>
      <g>
        <line class="cls-31" x1="1350.11" y1="1086.55" x2="1377.48" y2="1139.12"/>
        <line class="cls-31" x1="1377.71" y1="1071.41" x2="1377.48" y2="1139.12"/>
      </g>
      <g>
        <line class="cls-31" x1="1523.46" y1="1403.77" x2="1521.99" y2="1463.02"/>
        <line class="cls-31" x1="1492.01" y1="1402.31" x2="1521.99" y2="1463.02"/>
      </g>
      <g>
        <line class="cls-31" x1="1253" y1="1266.43" x2="1280.37" y2="1319"/>
        <line class="cls-31" x1="1280.6" y1="1251.29" x2="1280.37" y2="1319"/>
      </g>
      <g>
        <line class="cls-31" x1="1240.27" y1="1200.83" x2="1267.64" y2="1253.4"/>
        <line class="cls-31" x1="1267.88" y1="1185.69" x2="1267.64" y2="1253.4"/>
      </g>
      <g>
        <line class="cls-31" x1="1223.74" y1="1140.12" x2="1251.11" y2="1192.69"/>
        <line class="cls-31" x1="1251.35" y1="1124.98" x2="1251.11" y2="1192.69"/>
      </g>
      <g>
        <line class="cls-31" x1="1353.65" y1="1436.64" x2="1381.02" y2="1489.21"/>
        <line class="cls-31" x1="1381.26" y1="1421.5" x2="1381.02" y2="1489.21"/>
      </g>
      <g>
        <line class="cls-31" x1="1340.02" y1="1363.52" x2="1367.39" y2="1416.09"/>
        <line class="cls-31" x1="1367.63" y1="1348.38" x2="1367.39" y2="1416.09"/>
      </g>
      <g>
        <line class="cls-31" x1="1325.23" y1="1301.01" x2="1352.6" y2="1353.58"/>
        <line class="cls-31" x1="1352.84" y1="1285.87" x2="1352.6" y2="1353.58"/>
      </g>
      <g>
        <line class="cls-31" x1="1310.84" y1="1238.86" x2="1338.21" y2="1291.43"/>
        <line class="cls-31" x1="1338.45" y1="1223.72" x2="1338.21" y2="1291.43"/>
      </g>
      <g>
        <line class="cls-31" x1="1302.1" y1="1179.69" x2="1329.47" y2="1232.26"/>
        <line class="cls-31" x1="1329.71" y1="1164.55" x2="1329.47" y2="1232.26"/>
      </g>
      <g>
        <line class="cls-31" x1="1286.3" y1="1111.45" x2="1313.67" y2="1164.02"/>
        <line class="cls-31" x1="1313.91" y1="1096.31" x2="1313.67" y2="1164.02"/>
      </g>
      <g>
        <line class="cls-31" x1="1428.66" y1="1425.72" x2="1456.03" y2="1478.29"/>
        <line class="cls-31" x1="1456.26" y1="1410.58" x2="1456.03" y2="1478.29"/>
      </g>
      <g>
        <line class="cls-31" x1="1475.05" y1="1194.71" x2="1473.57" y2="1253.96"/>
        <line class="cls-31" x1="1443.59" y1="1193.25" x2="1473.57" y2="1253.96"/>
      </g>
      <g>
        <line class="cls-31" x1="1288.94" y1="1456" x2="1316.31" y2="1508.57"/>
        <line class="cls-31" x1="1316.55" y1="1440.86" x2="1316.31" y2="1508.57"/>
      </g>
      <g>
        <line class="cls-31" x1="1272.97" y1="1392.84" x2="1300.34" y2="1445.41"/>
        <line class="cls-31" x1="1300.57" y1="1377.7" x2="1300.34" y2="1445.41"/>
      </g>
      <g>
        <line class="cls-31" x1="1259.17" y1="1327.46" x2="1286.54" y2="1380.03"/>
        <line class="cls-31" x1="1286.78" y1="1312.32" x2="1286.54" y2="1380.03"/>
      </g>
      <path class="cls-6" d="m1610.91,1054.49s109.69,71.37,141.46,161.34c31.76,89.97,32.98,88.97,39.06,121.49l6.09,32.52,11.49,41.37"/>
    </g>
    <g id="eraser">
      <path class="cls-44" d="m687.19,1376.69c1.54,8.26,1.44,11.44.09,12.08-2.82,1.34-10.78-8.59-15.36-17.16-1.86-3.48-4.62-8.75-5.8-16.27-1.69-10.71.09-24.33,3.38-24.8,5.71-.81,14.36,28.18,17.7,46.14Z"/>
      <path class="cls-45" d="m701.96,1370.1c-8.45,5.54-14.07,4.56-15.3,4.31-.97-.2-3.4-.8-6.97-3.45-9.98-7.42-12.98-19.1-13.26-20.3-2.96-12.52,1.7-22.84,3.74-27.23,1.89-4.06,7.94-17.04,22.53-22.53,2.89-1.09,10.81-3.69,20.09-1.76,2.38.49,7.41,1.59,12.44,5.43.39.3,2.77,2.13,4.05,3.79,5.21,6.76-1,19.81-6.38,32.29-5.57,12.92-10.69,22.74-20.95,29.45Z"/>
      <polygon class="cls-49" points="769.74 1423.59 809.55 1351.47 725.02 1304.39 685.44 1374.1 769.74 1423.59"/>
      <path class="cls-53" d="m685.45,1374.11l1.32,14.79c30.25,16.52,60.5,33.04,90.74,49.56-2.59-4.95-5.18-9.91-7.77-14.87-28.1-16.49-56.19-32.99-84.29-49.49Z"/>
      <path class="cls-53" d="m769.74,1423.59c13.27-24.04,26.55-48.08,39.82-72.11l2.19,15.92c-11.41,23.69-22.83,47.37-34.24,71.05-2.59-4.95-5.18-9.91-7.77-14.86Z"/>
      <path class="cls-53" d="m717.79,1394.05c12.65-24.18,25.31-48.36,37.96-72.54,1.52.84,3.04,1.69,4.55,2.53-12.96,23.85-25.92,47.71-38.88,71.56l-3.63-1.54Z"/>
      <path class="cls-53" d="m727.09,1399.18c12.65-24.18,25.31-48.36,37.96-72.54,2.29,1.29,4.57,2.58,6.86,3.86-12.83,24.31-25.65,48.62-38.47,72.93-2.12-1.42-4.23-2.83-6.35-4.25Z"/>
    </g>
    <g id="coffee">
      <path class="cls-48" d="m869.64,1617.04c-7.82,15.11-2.51,32.52,8.42,66.75,5.79,18.12,12.6,38.93,28.09,63.3,6.53,10.27,15.7,24.46,32.01,39.17,7.42,6.7,16.23,14.64,28.78,20.82,32.79,16.14,67.17,8.44,93.75,2.49,15.23-3.42,27.71-6.32,42.42-15.14,5.95-3.57,24.06-15.19,38.36-37.7,10.18-16.04,13.75-30.25,16.79-42.34,4.73-18.86,5.16-33.49,5.57-48,.48-16.93-.81-28.63-2.98-49.26-2.24-21.18-4.3-29.38-6.79-36.6-4.06-11.78-7.06-20.47-14.99-26.87-7.99-6.45-17.34-7.61-37.78-7.44-35.87.3-57.32,3.7-57.32,3.7-27.92,4.43-47.69,9.79-74.34,17.09-40.96,11.23-57.25,18.09-72.94,27.33-14.64,8.62-22.09,13.13-27.04,22.7Z"/>
      <path class="cls-48" d="m1159.2,1596.15c5.16-11.08,26.59-16.58,40.59-8.88,4.88,2.68,7.42,6.18,10.83,11,17.63,24.94,13.56,54.01,13.04,57.33-1.65,10.66-5.1,18.45-6.89,22.4-5.02,11.14-10.88,18.09-18.38,27.19-13.49,16.35-21.86,21.35-27.21,23.88-5.49,2.59-12.39,5.85-15.93,3.1-4.33-3.37-.27-13.16,2.9-27.47,4.95-22.34,4.39-40.67,4.06-51.63-.68-22.56-1.02-33.84-2.74-42.72-1.17-6.11-2.27-9.88-.27-14.19Z"/>
      <g>
        <path class="cls-42" d="m1166.69,1625.58c4.27-6.12,13.16-12.89,21.61-10.49,8.19,2.32,11.46,11.35,12.79,15.18,2.95,8.54,1.46,16.06.15,22.15-.69,3.22-2.97,12.69-11.11,24.62-2.79,4.09-17.87,26.28-25.32,23.33-4.67-1.84-1.13-11.5-1.97-47.99-.3-13.27-.96-19.94,3.84-26.81Z"/>
        <path class="cls-42" d="m1168.39,1626.64c4.44-6.29,13.45-12.82,21.35-8.85,3.24,1.63,5.47,4.49,7.1,7.59.7,1.32,1.3,2.69,1.82,4.09-.17-.44.11.3.16.43.1.28.19.55.29.82.43,1.27.8,2.58,1.07,3.89,1.45,7.05.09,14.62-1.96,21.44-2.27,7.54-6.05,14.47-10.5,20.94-3.24,4.71-6.61,9.25-10.35,13.4-1.11,1.24-2.27,2.44-3.48,3.58-.53.5-1.07.99-1.63,1.46-.28.24-.56.47-.85.69-.13.1-.25.2-.38.29-.1.07-.2.15-.3.23.17-.12.16-.11-.03.02-.48.33-.97.66-1.49.94-.28.16-.57.31-.87.46-.17.08-1.02.4-.48.22-.49.16-.96.26-1.47.35.59-.11-.03-.01-.22-.02-.12,0-.24-.02-.36-.03-.4-.03.42.14.04,0-.15-.06-.4-.18-.56-.19-.15,0,.5.32.18.07-.06-.05-.15-.1-.22-.14-.42-.21.19.23.09.09-.07-.11-.27-.33-.37-.4-.05-.04.29.53.1.13-.05-.11-.12-.22-.18-.33-.05-.09-.07-.2-.12-.28-.1-.15.18.6.06.14-.07-.28-.16-.55-.21-.83-.06-.29-.1-.59-.15-.88-.02-.14-.03-.3-.05-.44-.05-.38.03.55.01.16,0-.1-.01-.2-.03-.29-.28-4.65.09-9.36.24-14.01.3-8.98.39-17.97.22-26.95-.09-4.78-.35-9.57-.23-14.35.09-3.4.35-6.36,1.55-9.49.53-1.31,1.26-2.63,2.17-3.96,1.47-2.14-1.94-4.26-3.42-2.14-4.58,6.64-4.47,14.56-4.28,22.3.25,10.22.37,20.42.08,30.64-.15,5.49-.59,11.01-.42,16.51.08,2.73.26,6.19,2.82,7.84,4.77,3.05,10.67-2.16,13.88-5.25,4.77-4.61,8.85-9.97,12.68-15.38,4.6-6.51,8.65-13.38,11.36-20.91.88-2.45,1.59-4.94,2.13-7.49.98-4.65,1.82-9.35,1.53-14.11-.27-4.42-1.43-8.62-3.15-12.67-1.43-3.35-3.39-6.64-6.13-9.08-3.61-3.23-8.16-4.75-12.99-4.15-4.89.6-9.43,3.38-13,6.65-1.67,1.53-3.18,3.26-4.49,5.11-1.5,2.12,1.92,4.25,3.41,2.13Z"/>
      </g>
      <path class="cls-56" d="m888.71,1641.43c-4.3-1.95-5.96-7.88-6.12-10.38-1.1-17,56.94-35.03,93.69-46.22,31.96-9.73,72.37-20.56,120.64-20.23,29.85.2,39.76,4.48,41.39,10.03,1.26,4.31-2.04,10.84-6.71,13.32-4.12,2.18-8.26.6-13.58-.33-2.73-.48-10.54-.33-26.15-.03-16.73.32-32.17,2.98-55.3,6.95-18.04,3.1-30,5.15-46.65,9.56-15.75,4.17-24.75,6.55-36.98,11.65-29.96,12.5-44.94,18.75-49.61,21.73-3.01,1.91-9.51,6.25-14.62,3.93Z"/>
      <path class="cls-50" d="m888.71,1640.97c-1.84-8.38,78.16-32.39,90.25-36.02,17.2-5.16,31.32-9.36,47.72-12.96,3.15-.69,9.26-1.97,17.36-3.41,26.28-4.68,88.61-13.7,90.86-5.17.55,2.07-2.61,4.6-4.42,5.96-33.58,25.46-111.1,40.73-118.08,42.07-27.75,5.33-55.78,10.58-93.75,11.89-27.74.95-29.69-1.28-29.94-2.36Z"/>
    </g>
    <g id="mitten">
      <path class="cls-50" d="m1074.48,925.74c20.57-31.98,19.42-61.25,17.64-106.23-.29-7.3-1.34-21.76-11.34-31.7-2.17-2.16-7.37-7.33-14.18-6.77-7.35.61-11.87,7.52-12.82,8.98-6.96,10.67-2.33,22.88-4.77,23.65-2.85.91-9.66-15.59-15.81-26.7-4.92-8.88-23.13-41.78-55.78-52.23-22.84-7.31-51.56-3.26-73.03,13.95-28.14,22.56-29.51,56.25-29.79,63.16-.91,22.21,7.4,37.64,24,68.48,19.88,36.93,41.57,58.35,64.01,80.53,16.88,16.68,21.5,18.6,25.18,19.62,31.54,8.77,69.28-27.68,86.7-54.75Z"/>
      <path class="cls-47" d="m1070.09,996.32c16.06-8.1,31.33-17.66,47.17-26.17,1.08-.58,4.01-2.14,5.91-5.41,2.82-4.86,1.63-10.44,1.03-13.01-.79-3.42-1.9-5.23-8.06-14.63-4.95-7.55-7.43-11.34-11.04-16.74-3.28-4.9-3.93-7.5-7.17-10.79-2.46-2.51-5.64-5.74-10.11-6.06-2.59-.18-4.3.7-10.2,3.7-14.42,7.33-8.32,3.9-12.11,6.13-9.99,5.89-20.5,10.85-30.75,16.28-23.9,12.67-35.84,19-40.06,20.84-3.68,1.6-7.15,3.55-14.1,7.44-1.78.99-2.79,1.59-4,2.67-3.59,3.21-5.9,8.36-5.55,13.14.24,3.28,1.64,4.88,4.8,9.86,1.54,2.43,6.42,11.03,16.17,28.25,1.07,1.89,2.2,3.91,4.38,6.1.58.59,5.69,5.77,12.35,6.62,7.64.98,13.95-3.44,16.44-5.14,2.44-1.67,16.6-8.8,44.92-23.09Z"/>
      <path class="cls-50" d="m980.02,966.08c3.57,14.44,14.07,25.43,22.78,37,2.54,3.36,4.92,6.83,7.01,10.49.81,1.41,3.03.21,2.23-1.2-7.22-12.67-18.19-22.74-25.11-35.58-1.93-3.58-3.45-7.32-4.43-11.27-.41-1.58-2.88-1.02-2.48.57h0Z"/>
      <path class="cls-50" d="m995.53,959.91c5.91,17.54,14.66,34.01,25.95,48.68.99,1.29,2.83-.46,1.84-1.74-11-14.29-19.57-30.43-25.33-47.52-.52-1.53-2.99-.97-2.47.57h0Z"/>
      <path class="cls-50" d="m1007.02,953.88c10.63,14.14,19.92,29.26,27.77,45.1.72,1.46,2.95.25,2.23-1.2-7.95-16.05-17.39-31.32-28.15-45.64-.98-1.3-2.81.44-1.84,1.74h0Z"/>
      <path class="cls-50" d="m1021.63,945.65c1.43,4.36,3.9,8.14,6.49,11.89,2.66,3.85,5.27,7.73,7.82,11.65,5.15,7.91,10.07,15.98,14.75,24.2.81,1.41,3.03.21,2.23-1.2-4.6-8.06-9.43-15.99-14.49-23.78-2.51-3.86-5.07-7.68-7.69-11.47-2.57-3.72-5.24-7.49-6.65-11.84-.49-1.55-2.96-.99-2.46.56h0Z"/>
      <path class="cls-50" d="m1034.67,937.92c10.88,14.4,20.88,29.48,29.92,45.11.81,1.4,3.04.21,2.23-1.2-9.14-15.83-19.29-31.07-30.3-45.65-.99-1.3-2.82.44-1.84,1.74h0Z"/>
      <path class="cls-50" d="m1052.02,928.8c3.56,8.14,8,15.88,12.19,23.7,4.3,8.03,8.59,16.06,12.9,24.08.77,1.43,3,.23,2.23-1.2-4.3-8.03-8.59-16.06-12.9-24.08-4.19-7.81-8.64-15.56-12.19-23.7-.65-1.49-2.87-.28-2.23,1.2h0Z"/>
      <path class="cls-50" d="m1064.87,923.16c5.72,7.31,11.07,14.88,16.01,22.73,2.43,3.87,4.78,7.79,7.02,11.77,2.09,3.72,4.03,7.59,7.15,10.58,1.17,1.12,3.02-.61,1.84-1.74-3.19-3.06-5.09-7.1-7.24-10.88-2.25-3.98-4.61-7.89-7.07-11.75-4.92-7.74-10.23-15.23-15.88-22.45-1-1.28-2.85.46-1.84,1.74h0Z"/>
      <path class="cls-50" d="m1077.2,915.64c12.45,13.06,23.5,27.43,32.85,42.87.84,1.39,3.08.19,2.23-1.2-9.47-15.62-20.64-30.17-33.23-43.4-1.13-1.18-2.97.55-1.84,1.74h0Z"/>
      <path class="cls-50" d="m1169.26,830.09c-35.12-14.57-50.85-39.28-75.02-77.25-3.92-6.17-11.29-18.64-8.74-32.51.55-3.01,1.89-10.22,7.8-13.64,6.39-3.69,14.04-.58,15.64.08,11.8,4.8,14.95,17.47,17.4,16.72,2.85-.88-.95-18.32-2.22-30.95-1.02-10.1-4.79-47.52,16.08-74.71,14.6-19.02,40.51-32.06,67.97-30.14,35.98,2.51,56.3,29.42,60.48,34.94,13.4,17.74,15.36,35.14,19.29,69.95,4.69,41.68-.91,71.64-6.73,102.65-4.37,23.32-7.08,27.54-9.51,30.47-20.92,25.17-72.7,16.72-102.44,4.39Z"/>
      <path class="cls-47" d="m1213.08,885.6c-17.8,2.49-35.81,3.33-53.67,5.36-1.23.14-4.52.52-7.93-1.08-5.1-2.39-7.28-7.66-8.25-10.1-1.31-3.26-1.42-5.38-1.72-16.61-.24-9.03-.35-13.55-.46-20.05-.11-5.89-1.04-8.4-.26-12.96.6-3.47,1.36-7.94,4.86-10.74,2.03-1.62,3.93-1.88,10.5-2.78,16.02-2.19,9.05-1.54,13.44-1.85,11.57-.85,23.03-2.77,34.56-4.14,26.86-3.21,40.28-4.81,44.8-5.71,3.94-.78,7.9-1.15,15.84-1.91,2.04-.19,3.2-.28,4.81-.09,4.78.59,9.62,3.51,12.05,7.64,1.67,2.82,1.43,4.94,1.67,10.83.11,2.87,1.01,12.73,2.8,32.44.2,2.17.41,4.47-.12,7.5-.14.82-1.38,7.98-6.37,12.48-5.73,5.16-13.42,5.11-16.44,5.14-2.99.03-18.69,2.22-50.09,6.62Z"/>
      <path class="cls-50" d="m1267.59,810.5c6.68,17.58.73,36.83,2.34,55,.14,1.6,2.68,1.72,2.53.1-1.66-18.74,4.26-38.18-2.65-56.32-.58-1.51-2.8-.3-2.22,1.21h0Z"/>
      <path class="cls-50" d="m1251.2,813.95c5.04,17.45,7.21,35.65,6.3,53.81-.08,1.63,2.45,1.73,2.53.1.92-18.35-1.26-36.82-6.36-54.48-.45-1.56-2.92-1-2.47.57h0Z"/>
      <path class="cls-50" d="m1238.21,814.56c-.69,17.9.3,35.84,2.9,53.55.24,1.61,2.7,1.04,2.47-.57-2.59-17.5-3.52-35.21-2.84-52.88.07-1.63-2.46-1.74-2.53-.1h0Z"/>
      <path class="cls-50" d="m1221.63,817.11c1.34,4.47,1.31,9.12,1.32,13.75.01,4.58.08,9.16.22,13.73.29,9.23.83,18.44,1.64,27.63.14,1.6,2.68,1.72,2.53.1-.82-9.35-1.38-18.74-1.65-28.13-.13-4.66-.2-9.32-.21-13.98,0-4.59-.06-9.25-1.39-13.68-.46-1.55-2.93-.98-2.45.58h0Z"/>
      <path class="cls-50" d="m1206.41,817.18c-.74,18.16-.38,36.34,1.11,54.45.13,1.6,2.67,1.72,2.53.1-1.49-18.11-1.86-36.3-1.11-54.45.07-1.63-2.46-1.73-2.53-.1h0Z"/>
      <path class="cls-50" d="m1186.97,820.24c1.72,8.79,2.48,17.77,3.51,26.68,1.04,8.96,2.06,17.92,3.1,26.88.19,1.62,2.65,1.03,2.47-.57-1.04-8.96-2.06-17.92-3.1-26.88-1.02-8.89-1.78-17.87-3.51-26.68-.31-1.6-2.77-1.02-2.47.57h0Z"/>
      <path class="cls-50" d="m1173.17,822.27c-.53,9.15-.62,18.32-.24,27.47.19,4.54.49,9.07.9,13.59.39,4.24,1.14,8.64.27,12.86-.32,1.58,2.09,2.35,2.42.75.85-4.21.32-8.41-.09-12.63-.44-4.65-.76-9.31-.96-13.98-.4-9.32-.32-18.65.22-27.96.1-1.62-2.43-1.73-2.53-.09h0Z"/>
      <path class="cls-50" d="m1158.75,823.1c-2.81,17.94-3.69,36.15-2.59,54.27.1,1.61,2.63,1.73,2.53.1-1.11-18.12-.22-36.33,2.59-54.27.25-1.61-2.28-1.7-2.53-.1h0Z"/>
    </g>
    <g id="hat">
      <path class="cls-47" d="m1545.35,444.67c2.25-13.63,8.19-60.04-19.07-107.69-7.08-12.39-31.91-54.25-84.89-71.37-58.01-18.75-106.89,6.02-118.57,12.42-47.68,26.09-65.98,69.05-70.69,81.25,16.04,8.59,36.74,18.87,61.46,29.15,32.17,13.38,56.96,20.87,78.89,27.43,38.73,11.58,73.94,21.91,121.54,26.66,13.12,1.31,24,1.87,31.32,2.15Z"/>
      <path class="cls-50" d="m1250.61,358.55c-2.42.03-5.92.41-9.45,2.24-8.37,4.34-11.44,16.9-17.23,41.83-4.33,18.66-6.47,28.07-5.22,32.08,3.85,12.29,16.01,18.37,30.64,25.23,33.54,15.73,50.3,23.6,72.08,30.86,31.77,10.59,58.23,17.34,81.95,23.38,11.51,2.93,21.77,5.39,30.27,7.42,22.07,5.28,33.38,7.98,46.38,10.37,41.59,7.65,51.26,4,56.34-1.29,1.85-1.93,3.07-4.09,5.51-8.4,1.93-3.42,4.65-8.86,9.24-25.52,2.72-9.88,4.1-14.97,4.98-22.01,1.56-12.55.16-16.82-.72-18.86-2.57-5.96-7.21-9.47-10.01-11.22"/>
      <path class="cls-49" d="m1522.2,457.37c.5,17.34-8.2,33.07-14.33,48.76-1.77,4.54-3.37,9.15-4.56,13.86-.54,2.16,2.81,3.01,3.36.85,4.26-16.9,13.78-31.99,17.53-49.04,1.04-4.76,1.6-9.64,1.46-14.51-.06-2.22-3.52-2.17-3.46.07h0Z"/>
      <path class="cls-49" d="m1480.49,445.38c-3.38,17.13-8.92,33.82-16.57,49.51-2.16,4.42-4.48,8.77-6.96,13.03-1.13,1.93,1.89,3.64,3.01,1.71,8.91-15.32,15.8-31.82,20.47-48.91,1.31-4.79,2.44-9.62,3.4-14.49.42-2.17-2.93-3.04-3.36-.85h0Z"/>
      <path class="cls-49" d="m1445.34,434.78c-7.9,16.63-14.56,33.85-19.87,51.48-1.5,4.98-2.89,9.98-4.17,15.02-.55,2.16,2.81,3.01,3.36.85,4.49-17.62,10.3-34.91,17.4-51.64,2-4.71,4.1-9.37,6.3-14,.4-.84.21-1.88-.65-2.37-.76-.43-1.96-.2-2.36.65h0Z"/>
      <path class="cls-49" d="m1401.75,422.13c-.19,4.22-1.65,8.3-3.25,12.18-1.71,4.16-3.51,8.29-5.2,12.46-3.37,8.34-6.53,16.75-9.46,25.25-1.64,4.76-3.2,9.55-4.7,14.36-.66,2.13,2.69,2.98,3.36.85,2.69-8.67,5.62-17.25,8.78-25.76,3.13-8.42,6.58-16.69,10.04-24.98,1.93-4.63,3.66-9.36,3.9-14.43.04-.93-.87-1.71-1.77-1.7-.99.03-1.65.85-1.69,1.78h0Z"/>
      <path class="cls-49" d="m1364.14,411.39c-7.28,15.8-13.69,32.01-19.05,48.56-1.49,4.59-2.9,9.21-4.22,13.86-.62,2.14,2.74,3,3.36.85,4.67-16.35,10.35-32.41,16.97-48.07,1.91-4.53,3.9-9.02,5.96-13.49.39-.85.21-1.87-.65-2.37-.76-.43-1.97-.21-2.37.65h0Z"/>
      <path class="cls-49" d="m1324.37,399.82c-2.44,8.18-5.72,16.08-8.83,24.01-3.13,7.98-6.27,15.97-9.41,23.96-1.76,4.5-3.54,9-5.3,13.5-.34.87.43,1.89,1.25,2.1,1,.25,1.76-.37,2.1-1.25,6.27-15.96,12.62-31.9,18.8-47.89,1.73-4.48,3.38-8.99,4.75-13.59.63-2.13-2.73-2.98-3.36-.85h0Z"/>
      <path class="cls-49" d="m1291.42,387.26c-7.05,15.85-12.95,32.22-17.61,48.94-1.23,4.41-2.31,8.92-4.76,12.84-1.19,1.89,1.83,3.6,3.01,1.71,2.2-3.51,3.4-7.53,4.5-11.5,1.15-4.17,2.35-8.32,3.64-12.45,2.57-8.24,5.44-16.38,8.61-24.41,1.78-4.51,3.67-8.98,5.63-13.41.38-.85.22-1.86-.65-2.37-.76-.42-1.99-.21-2.37.65h0Z"/>
      <path class="cls-49" d="m1265,374.09c-7.71,16.36-14.12,33.32-19.1,50.71-1.4,4.89-2.69,9.8-3.87,14.75-.51,2.16,2.84,3.02,3.36.85,4.12-17.3,9.6-34.29,16.45-50.7,1.95-4.68,4.01-9.31,6.17-13.89.4-.84.21-1.87-.65-2.37-.76-.43-1.96-.2-2.36.65h0Z"/>
    </g>
  </g>
</svg>