<?xml version="1.0" encoding="utf-8"?>
<!-- Generator: Adobe Illustrator 27.4.1, SVG Export Plug-In . SVG Version: 6.00 Build 0)  -->
<svg version="1.1" id="Layer_1" xmlns="http://www.w3.org/2000/svg" xmlns:xlink="http://www.w3.org/1999/xlink" x="0px" y="0px"
	 viewBox="0 0 595.28 1801.89" style="enable-background:new 0 0 595.28 1801.89;" xml:space="preserve">
<style type="text/css">
	.st0{fill:none;}
	.st1{fill:#F2C9A0;}
	.st2{fill:none;stroke:#FFFFFF;stroke-width:3;stroke-miterlimit:10;}
</style>
<g id="tidslinje" transform="translate(308.647 -49.224) rotate(90)">
	
		<rect id="Rectangle_11" x="244.6" y="-52.39" transform="matrix(2.535182e-06 1 -1 2.535182e-06 350.2201 -269.1466)" class="st0" width="130.16" height="185.86"/>
	<g id="Group_43" transform="matrix(0.999, -0.035, 0.035, 0.999, 160.732, 144.343)">
		<g id="Group_42">
			<path id="Path_47" class="st1" d="M127.49-71.95c32.27,5.87,70.75,8.19,98.85-6.39c9.35-4.85,15.17-11.52,21.6-18.03
				c11.3-11.44,25.49-20.98,40.37-30.32c11.67-7.32,24.24-16.61,39.81-20.15c15.55-3.54,29.7-8.54,37.16-18.97
				c3.74-5.24,4-11.43-2.29-15.87c-6.16-4.35-16.31-6.19-24.71-3.99c-15.64,4.08-19.42,18.79-11.36,27.66
				c9.57,10.53,28.8,16.58,45.36,20.73c19.06,4.88,38.74,6.88,58.39,5.95c15.49-0.81,28.86-0.58,43.01,4.41
				c16.48,5.82,30.59,14.68,44.72,22.66c15.23,8.58,29.6,17.35,43.66,26.75c8.26,5.64,16.95,10.62,25.99,14.9
				c8.08,3.75,16.22,5.7,25.34,7.88c7.01,1.53,13.54,4.75,19.03,9.38c2.03,1.81,4.95,4.62,4.6,7.02c-0.45,2.97-6.24,4.8-10.26,4.17
				c-8.12-1.27-9.5-9.51-7.06-13.86c3.39-6.06,11.9-10.66,19.94-13.9c9.97-3.98,20.49-6.44,31.19-7.31
				c11.95-0.97,22.21,1.29,33.64,3.12c24.15,3.75,48.68,4.4,72.99,1.91c17.35-1.72,34.3-5.32,47.42-13.43
				c11.45-7.09,18.23-16.58,24.15-26.06c5.64-9.01,10.67-18.72,20.2-26.32c11.49-9.14,28.17-12.75,45.43-14.05
				c23.04-1.64,46.19-0.61,69,3.07c9.89,1.58,19.42,4.02,29.57,4.82c10.88,0.74,21.81-0.04,32.47-2.32
				c17.99-3.73,37.85-11.4,45.84-23.41c6.42-9.65,1.45-24.8-16.07-27.26c-8.58-1.2-18.79,1.5-23.53,6.5
				c-4.71,4.98-3,10.84,1.08,15.7c7.97,9.48,22.01,13.41,36.31,17.54c8.88,2.56,17.15,4.89,24.56,9.22
				c8.25,4.82,14.91,10.63,22.77,15.7c2.68,1.72,5.6,3.31,8.36,4.98c15.55,9.23,30.76,18.76,46.72,27.68
				c12.95,7.46,26.96,12.9,41.54,16.15c20.93,4.54,41.89-0.25,63.14,2.27c17.02,2.03,33.96,5.83,48.65,12.01
				c6.5,2.72,13.59,6.24,16.89,11.04c2.98,4.35,1.06,12.95-7.65,13.56c-3.87,0.27-8.99-1.49-9.4-4.28
				c-0.41-2.69,3.02-5.73,5.38-7.68c5.38-4.49,12.42-7.48,20.59-9.22c14.91-3.18,26.38-9.03,37.95-15.97
				c16.55-9.93,33.01-20.11,46.47-31.99c7.24-6.38,12.64-13.95,20.85-19.79c8.45-6,20.2-9.46,32.08-11.13
				c19.94-2.79,40.83-0.38,60.18,3.14c8.4,1.53,11.97-7.19,3.59-8.72c-32.27-5.87-70.75-8.19-98.85,6.4
				c-9.35,4.85-15.17,11.52-21.6,18.03c-11.3,11.44-25.49,20.98-40.37,30.32c-11.67,7.32-24.26,16.61-39.81,20.15
				c-15.62,3.56-30.14,8.71-37.37,19.26c-3.56,5.18-3.67,11.23,2.48,15.58c6.18,4.37,16.35,6.19,24.8,3.96
				c16.33-4.31,19.36-19.33,10.48-28.31c-9.46-9.58-26.33-15.24-41.8-19.36c-17.5-4.67-36.88-7.58-55.78-6.83
				c-10.22,0.4-19.98,1.59-30.16,0.16c-8.06-1.16-15.96-3.18-23.59-6.02c-17.73-6.61-32.49-16.84-47.5-25.81
				c-8.51-5.08-17.2-10.06-25.58-15.22c-8.66-5.35-15.79-11.75-24.78-16.9c-7.48-4.14-15.47-7.3-23.76-9.4
				c-8.42-2.3-18.06-4.59-25.43-8.23c-4.43-2.2-8.96-5.77-10.46-9.35c-1.23-2.92,1.02-5.12,5.31-6c5.19-1.07,8.99,1,11.02,4.08
				c8.25,12.49-15.06,22.76-29.27,26.87c-10.83,3.16-22.1,4.55-33.38,4.12c-10.82-0.49-21.17-3.47-31.69-5.05
				c-22.19-3.4-44.66-4.49-67.08-3.26c-18.1,1.1-36.16,3.91-50.48,11.81c-24.09,13.31-26.7,35.53-44.39,51.74
				c-10.43,9.56-25.88,13.98-42.84,16.13c-24.42,3.02-49.15,2.53-73.43-1.45c-11.23-1.87-21.73-4.01-33.46-3.4
				c-10.39,0.54-20.68,2.33-30.65,5.31c-15.88,4.75-33.91,13.54-37.13,25.82c-2.96,11.33,9.35,24.96,28.43,21.8
				c8.3-1.37,15.6-5.85,16.46-11.72c0.82-5.54-3.69-10.66-8.75-14.8c-5.68-4.55-12.21-7.93-19.2-9.95
				c-8.75-2.63-17.5-3.92-25.64-7.55c-17.11-7.64-29.92-18.43-45.13-27.55c-16.33-9.78-33.2-19.34-50.53-28.33
				c-12.29-6.38-25.45-12.12-40.83-14.47c-15.23-2.33-30.31,0.27-45.64-0.26c-20.63-0.76-40.97-5.09-60.12-12.79
				c-6.76-2.81-14.69-6.6-17.63-11.81c-2.36-4.18,0.35-12.31,8.25-12.86c3.98-0.27,9.07,1.55,9.4,4.4c0.32,2.81-3.39,5.95-5.9,7.96
				c-5.44,4.38-12.2,7.18-20.28,8.88c-14.8,3.12-26.27,9.04-37.74,15.91c-16.55,9.93-33.01,20.12-46.47,32
				c-7.24,6.38-12.64,13.95-20.85,19.79c-8.45,6-20.2,9.46-32.08,11.13c-19.94,2.79-40.83,0.38-60.18-3.14
				C122.67-82.19,119.08-73.47,127.49-71.95L127.49-71.95z"/>
		</g>
	</g>
	<circle id="Ellipse_20" class="st1" cx="236.82" cy="19.77" r="70.08"/>
	<path id="Path_48" class="st2" d="M217.34-50.31c-12.46,25.04-10.57,53.76,5.03,73.55c13.54,17.18,32.68,21.67,39.02,22.87"/>
	<path id="Path_49" class="st2" d="M227.85-55.67c-8.6,22.29-7.27,48.78,3.49,68.07c13.42,24.08,34.96,25.16,37.64,25.24"/>
	<path id="Path_50" class="st2" d="M197.39,79.19c24.24-4.15,46.59-15.7,63.99-33.08c29.86-30.15,33.2-66.62,33.79-76.12"/>
	<path id="Path_51" class="st2" d="M235.52-54.09c-1.15,4.42-9.07,37.05,11.65,63.25c7.32,9.12,16.9,16.16,27.79,20.44"/>
	<path id="Path_52" class="st2" d="M247.86-52.25c-1.18,4.22-6.53,25.04,5.33,45.93c6.19,10.76,15.56,19.34,26.83,24.56"/>
	<path id="Path_53" class="st2" d="M260.73-49.2c-7.1,22.7,4.13,47.09,26,56.46"/>
	<path id="Path_54" class="st2" d="M277.36-41.42c-1.01,5.14-0.9,10.44,0.32,15.53c2.03,8,6.6,15.12,13.04,20.29"/>
	<path id="Path_55" class="st2" d="M202.32,92.25c24.24-4.15,46.6-15.71,63.99-33.08c29.86-30.15,33.2-66.62,33.79-76.12"/>
	<path id="Path_56" class="st2" d="M209.18,103.6c24.24-4.15,46.6-15.71,63.99-33.08c29.86-30.15,33.2-66.62,33.79-76.12"/>
	<path id="Path_57" class="st2" d="M191.46-35.88c2.16,1.79,4.64,3.15,7.3,4.01c3.5,1.12,7.23,1.35,10.84,0.69"/>
	<path id="Path_58" class="st2" d="M181.11-29.11c2.22,3.43,5.33,6.19,8.99,8.01c8.04,3.86,16.19,1.4,19.09,0.37"/>
	<path id="Path_59" class="st2" d="M172.44-15.07c10.36,8.89,24.83,11.24,37.47,6.09"/>
	<path id="Path_60" class="st2" d="M167.29,2.83c13.77,6.36,29.64,6.34,43.39-0.07"/>
	<path id="Path_61" class="st2" d="M165.59,17.44c16.8,5,34.78,4.33,51.16-1.92"/>
	<path id="Path_62" class="st2" d="M167.29,34.47c19.8,5.86,41.09,3.9,59.49-5.48"/>
	<path id="Path_63" class="st2" d="M169.01,48.69c7.34,3.01,15.18,4.64,23.12,4.79c9.3,0.11,18.52-1.75,27.05-5.45
		c6.34-2.62,12.28-6.12,17.65-10.39"/>
	<path id="Path_64" class="st2" d="M179.55,67.19c10.55,1.22,21.24,0.26,31.4-2.82c7.37-2.34,14.39-5.67,20.86-9.9
		c5.81-3.62,11.24-7.81,16.22-12.51"/>
	<g id="Group_64" transform="matrix(0.999, -0.035, 0.035, 0.999, 160.732, 144.343)">
		<g id="Group_42-2">
			<path id="Path_47-2" class="st1" d="M127.49-71.95c32.27,5.87,70.75,8.19,98.85-6.39c9.35-4.85,15.17-11.52,21.6-18.03
				c11.3-11.44,25.49-20.98,40.37-30.32c11.67-7.32,24.24-16.61,39.81-20.15c15.55-3.54,29.7-8.54,37.16-18.97
				c3.74-5.24,4-11.43-2.29-15.87c-6.16-4.35-16.31-6.19-24.71-3.99c-15.64,4.08-19.42,18.79-11.36,27.66
				c9.57,10.53,28.8,16.58,45.36,20.73c19.06,4.88,38.74,6.88,58.39,5.95c15.49-0.81,28.86-0.58,43.01,4.41
				c16.48,5.82,30.59,14.68,44.72,22.66c15.23,8.58,29.6,17.35,43.66,26.75c8.26,5.64,16.95,10.62,25.99,14.9
				c8.08,3.75,16.22,5.7,25.34,7.88c7.01,1.53,13.54,4.75,19.03,9.38c2.03,1.81,4.95,4.62,4.6,7.02c-0.45,2.97-6.24,4.8-10.26,4.17
				c-8.12-1.27-9.5-9.51-7.06-13.86c3.39-6.06,11.9-10.66,19.94-13.9c9.97-3.98,20.49-6.44,31.19-7.31
				c11.95-0.97,22.21,1.29,33.64,3.12c24.15,3.75,48.68,4.4,72.99,1.91c17.35-1.72,34.3-5.32,47.42-13.43
				c11.45-7.09,18.23-16.58,24.15-26.06c5.64-9.01,10.67-18.72,20.2-26.32c11.49-9.14,28.17-12.75,45.43-14.05
				c23.04-1.64,46.19-0.61,69,3.07c9.89,1.58,19.42,4.02,29.57,4.82c10.88,0.74,21.81-0.04,32.47-2.32
				c17.99-3.73,37.85-11.4,45.84-23.41c6.42-9.65,1.45-24.8-16.07-27.26c-8.58-1.2-18.79,1.5-23.53,6.5
				c-4.71,4.98-3,10.84,1.08,15.7c7.97,9.48,22.01,13.41,36.31,17.54c8.88,2.56,17.15,4.89,24.56,9.22
				c8.25,4.82,14.91,10.63,22.77,15.7c2.68,1.72,5.6,3.31,8.36,4.98c15.55,9.23,30.76,18.76,46.72,27.68
				c12.95,7.46,26.96,12.9,41.54,16.15c20.93,4.54,41.89-0.25,63.14,2.27c17.02,2.03,33.96,5.83,48.65,12.01
				c6.5,2.72,13.59,6.24,16.89,11.04c2.98,4.35,1.06,12.95-7.65,13.56c-3.87,0.27-8.99-1.49-9.4-4.28
				c-0.41-2.69,3.02-5.73,5.38-7.68c5.38-4.49,12.42-7.48,20.59-9.22c14.91-3.18,26.38-9.03,37.95-15.97
				c16.55-9.93,33.01-20.11,46.47-31.99c7.24-6.38,12.64-13.95,20.85-19.79c8.45-6,20.2-9.46,32.08-11.13
				c19.94-2.79,40.83-0.38,60.18,3.14c8.4,1.53,11.97-7.19,3.59-8.72c-32.27-5.87-70.75-8.19-98.85,6.4
				c-9.35,4.85-15.17,11.52-21.6,18.03c-11.3,11.44-25.49,20.98-40.37,30.32c-11.67,7.32-24.26,16.61-39.81,20.15
				c-15.62,3.56-30.14,8.71-37.37,19.26c-3.56,5.18-3.67,11.23,2.48,15.58c6.18,4.37,16.35,6.19,24.8,3.96
				c16.33-4.31,19.36-19.33,10.48-28.31c-9.46-9.58-26.33-15.24-41.8-19.36c-17.5-4.67-36.88-7.58-55.78-6.83
				c-10.22,0.4-19.98,1.59-30.16,0.16c-8.06-1.16-15.96-3.18-23.59-6.02c-17.73-6.61-32.49-16.84-47.5-25.81
				c-8.51-5.08-17.2-10.06-25.58-15.22c-8.66-5.35-15.79-11.75-24.78-16.9c-7.48-4.14-15.47-7.3-23.76-9.4
				c-8.42-2.3-18.06-4.59-25.43-8.23c-4.43-2.2-8.96-5.77-10.46-9.35c-1.23-2.92,1.02-5.12,5.31-6c5.19-1.07,8.99,1,11.02,4.08
				c8.25,12.49-15.06,22.76-29.27,26.87c-10.83,3.16-22.1,4.55-33.38,4.12c-10.82-0.49-21.17-3.47-31.69-5.05
				c-22.19-3.4-44.66-4.49-67.08-3.26c-18.1,1.1-36.16,3.91-50.48,11.81c-24.09,13.31-26.7,35.53-44.39,51.74
				c-10.43,9.56-25.88,13.98-42.84,16.13c-24.42,3.02-49.15,2.53-73.43-1.45c-11.23-1.87-21.73-4.01-33.46-3.4
				c-10.39,0.54-20.68,2.33-30.65,5.31c-15.88,4.75-33.91,13.54-37.13,25.82c-2.96,11.33,9.35,24.96,28.43,21.8
				c8.3-1.37,15.6-5.85,16.46-11.72c0.82-5.54-3.69-10.66-8.75-14.8c-5.68-4.55-12.21-7.93-19.2-9.95
				c-8.75-2.63-17.5-3.92-25.64-7.55c-17.11-7.64-29.92-18.43-45.13-27.55c-16.33-9.78-33.2-19.34-50.53-28.33
				c-12.29-6.38-25.45-12.12-40.83-14.47c-15.23-2.33-30.31,0.27-45.64-0.26c-20.63-0.76-40.97-5.09-60.12-12.79
				c-6.76-2.81-14.69-6.6-17.63-11.81c-2.36-4.18,0.35-12.31,8.25-12.86c3.98-0.27,9.07,1.55,9.4,4.4c0.32,2.81-3.39,5.95-5.9,7.96
				c-5.44,4.38-12.2,7.18-20.28,8.88c-14.8,3.12-26.27,9.04-37.74,15.91c-16.55,9.93-33.01,20.12-46.47,32
				c-7.24,6.38-12.64,13.95-20.85,19.79c-8.45,6-20.2,9.46-32.08,11.13c-19.94,2.79-40.83,0.38-60.18-3.14
				C122.67-82.19,119.08-73.47,127.49-71.95L127.49-71.95z"/>
		</g>
	</g>
</g>
</svg>
